<svg width="100" height="100" viewBox="0 0 100 100" fill="none" xmlns="http://www.w3.org/2000/svg">
<path d="M87.5 25.0002H12.5C7.32233 25.0002 3.125 29.1975 3.125 34.3752V84.3752C3.125 89.5529 7.32233 93.7502 12.5 93.7502H87.5C92.6777 93.7502 96.875 89.5529 96.875 84.3752V34.3752C96.875 29.1975 92.6777 25.0002 87.5 25.0002Z" fill="#2351B4"/>
<path d="M92.5937 89.0627H17.5938C15.1073 89.0627 12.7228 88.0749 10.9646 86.3168C9.20647 84.5586 8.21875 82.1741 8.21875 79.6877V29.6877C8.21724 28.2897 8.53805 26.9102 9.15625 25.6564C7.38851 26.3313 5.86635 27.5253 4.78988 29.0814C3.71341 30.6375 3.13301 32.483 3.125 34.3752V84.3752C3.125 86.8616 4.11272 89.2461 5.87087 91.0043C7.62903 92.7624 10.0136 93.7502 12.5 93.7502H87.5C89.2617 93.7393 90.9848 93.2322 92.4715 92.2871C93.9583 91.342 95.1487 89.997 95.9063 88.4064C94.853 88.8308 93.7293 89.0534 92.5937 89.0627V89.0627Z" fill="#003693"/>
<path d="M87.5 25.0002H12.5C10.7175 25.0077 8.97409 25.5232 7.47414 26.4862C5.97419 27.4493 4.77989 28.82 4.03125 30.4377L47.5937 74.0002C48.2324 74.6376 49.0977 74.9955 50 74.9955C50.9023 74.9955 51.7676 74.6376 52.4063 74.0002L95.9687 30.4377C95.2201 28.82 94.0258 27.4493 92.5259 26.4862C91.0259 25.5232 89.2825 25.0077 87.5 25.0002V25.0002Z" fill="#96D7FF"/>
<path d="M96.2812 87.5002L65.9375 57.2502C65.6261 56.9317 65.2542 56.6787 64.8437 56.506C64.4332 56.3333 63.9923 56.2443 63.5469 56.2443C63.1015 56.2443 62.6606 56.3333 62.2501 56.506C61.8395 56.6787 61.4677 56.9317 61.1563 57.2502L50 68.3752L38.8438 57.2502C38.5324 56.9317 38.1605 56.6787 37.7499 56.506C37.3394 56.3333 36.8985 56.2443 36.4531 56.2443C36.0077 56.2443 35.5668 56.3333 35.1563 56.506C34.7458 56.6787 34.3739 56.9317 34.0625 57.2502L3.71876 87.5002C4.36169 89.3188 5.54992 90.8948 7.12141 92.0133C8.6929 93.1318 10.5712 93.7383 12.5 93.7502H87.5C89.4289 93.7383 91.3071 93.1318 92.8786 92.0133C94.4501 90.8948 95.6383 89.3188 96.2812 87.5002Z" fill="#516FD7"/>
<path d="M89.4063 93.5314L90.2813 93.3127L90.8438 93.0939C91.0783 93.0139 91.3079 92.92 91.5313 92.8127L92.0938 92.5002L92.7188 92.1252L93.2188 91.7502L93.75 91.2814C93.9278 91.1605 94.0859 91.013 94.2188 90.8439L94.6875 90.3127C94.8322 90.1538 94.9678 89.9868 95.0938 89.8127L95.5 89.1877L95.7813 88.6564V88.4377C94.7326 88.8369 93.622 89.0485 92.5 89.0627H17.5C15.5284 89.0547 13.6095 88.4252 12.0162 87.2639C10.4228 86.1026 9.2362 84.4685 8.62501 82.5939L3.71876 87.5002C3.87501 87.8752 4.06251 88.2814 4.25001 88.6564C4.26684 88.7389 4.26684 88.824 4.25001 88.9064L4.90626 89.9064L5.12501 90.1564C5.5694 90.6998 6.07245 91.1923 6.62501 91.6252C6.74348 91.7369 6.86871 91.8413 7.00001 91.9377L7.62501 92.3127L8.43751 92.7814L9.06251 93.0314L10.125 93.3439H10.6563C11.2522 93.5531 11.8713 93.6895 12.5 93.7502H87.5C87.978 93.7978 88.4595 93.7978 88.9375 93.7502C89.1009 93.6937 89.258 93.6204 89.4063 93.5314V93.5314Z" fill="#2451B5"/>
<path d="M84.9688 25.0002H15.0312V41.4689L47.5937 74.0002C48.2324 74.6376 49.0977 74.9955 50 74.9955C50.9022 74.9955 51.7676 74.6376 52.4062 74.0002L84.9688 41.4689V25.0002Z" fill="#86C3EF"/>
<path d="M81.25 9.37518V45.1564L52.4063 74.0002C51.7676 74.6376 50.9023 74.9955 50 74.9955C49.0977 74.9955 48.2324 74.6376 47.5937 74.0002L18.75 45.1564V9.37518C18.75 6.88878 19.7377 4.50421 21.4959 2.74606C23.254 0.987903 25.6386 0.000183105 28.125 0.000183105H71.875C74.3614 0.000183105 76.746 0.987903 78.5041 2.74606C80.2623 4.50421 81.25 6.88878 81.25 9.37518Z" fill="#EEF5FD"/>
<path d="M22.6562 48.4064V12.5002C22.6562 10.0138 23.644 7.62922 25.4021 5.87106C27.1603 4.11291 29.5448 3.12519 32.0312 3.12519H75.7812C77.0982 3.12706 78.399 3.41495 79.5937 3.96894C78.7223 2.73427 77.5653 1.72857 76.2213 1.03753C74.8773 0.346498 73.3862 -0.00939221 71.875 0.000188432H28.125C25.6386 0.000188432 23.254 0.987909 21.4959 2.74606C19.7377 4.50422 18.75 6.88878 18.75 9.37519V45.1564L47.5937 74.0002C48.0079 74.3893 48.5128 74.6686 49.0625 74.8127L22.6562 48.4064Z" fill="#D7E2F2"/>
<path d="M66.5937 19.9377H35.3437C34.5149 19.9377 33.7201 19.6085 33.134 19.0224C32.548 18.4364 32.2187 17.6415 32.2187 16.8127C32.2187 15.9839 32.548 15.1891 33.134 14.603C33.7201 14.017 34.5149 13.6877 35.3437 13.6877H66.5937C67.4225 13.6877 68.2174 14.017 68.8035 14.603C69.3895 15.1891 69.7187 15.9839 69.7187 16.8127C69.7187 17.6415 69.3895 18.4364 68.8035 19.0224C68.2174 19.6085 67.4225 19.9377 66.5937 19.9377ZM66.5937 32.5627H35.3437C34.5149 32.5627 33.7201 32.2335 33.134 31.6474C32.548 31.0614 32.2187 30.2665 32.2187 29.4377C32.2187 28.6089 32.548 27.8141 33.134 27.228C33.7201 26.642 34.5149 26.3127 35.3437 26.3127H66.5937C67.4225 26.3127 68.2174 26.642 68.8035 27.228C69.3895 27.8141 69.7187 28.6089 69.7187 29.4377C69.7187 30.2665 69.3895 31.0614 68.8035 31.6474C68.2174 32.2335 67.4225 32.5627 66.5937 32.5627ZM66.5937 45.1877H35.3437C34.5149 45.1877 33.7201 44.8585 33.134 44.2724C32.548 43.6864 32.2187 42.8915 32.2187 42.0627C32.2187 41.2339 32.548 40.4391 33.134 39.853C33.7201 39.267 34.5149 38.9377 35.3437 38.9377H66.5937C67.4225 38.9377 68.2174 39.267 68.8035 39.853C69.3895 40.4391 69.7187 41.2339 69.7187 42.0627C69.7187 42.8915 69.3895 43.6864 68.8035 44.2724C68.2174 44.8585 67.4225 45.1877 66.5937 45.1877Z" fill="#D7E2F2"/>
<path d="M65.625 18.7502H34.375C33.5462 18.7502 32.7513 18.4209 32.1653 17.8349C31.5792 17.2488 31.25 16.454 31.25 15.6252C31.25 14.7964 31.5792 14.0015 32.1653 13.4155C32.7513 12.8294 33.5462 12.5002 34.375 12.5002H65.625C66.4538 12.5002 67.2487 12.8294 67.8347 13.4155C68.4208 14.0015 68.75 14.7964 68.75 15.6252C68.75 16.454 68.4208 17.2488 67.8347 17.8349C67.2487 18.4209 66.4538 18.7502 65.625 18.7502ZM65.625 31.2502H34.375C33.5462 31.2502 32.7513 30.9209 32.1653 30.3349C31.5792 29.7488 31.25 28.954 31.25 28.1252C31.25 27.2964 31.5792 26.5015 32.1653 25.9155C32.7513 25.3294 33.5462 25.0002 34.375 25.0002H65.625C66.4538 25.0002 67.2487 25.3294 67.8347 25.9155C68.4208 26.5015 68.75 27.2964 68.75 28.1252C68.75 28.954 68.4208 29.7488 67.8347 30.3349C67.2487 30.9209 66.4538 31.2502 65.625 31.2502ZM65.625 43.7502H34.375C33.5462 43.7502 32.7513 43.4209 32.1653 42.8349C31.5792 42.2488 31.25 41.454 31.25 40.6252C31.25 39.7964 31.5792 39.0015 32.1653 38.4155C32.7513 37.8294 33.5462 37.5002 34.375 37.5002H65.625C66.4538 37.5002 67.2487 37.8294 67.8347 38.4155C68.4208 39.0015 68.75 39.7964 68.75 40.6252C68.75 41.454 68.4208 42.2488 67.8347 42.8349C67.2487 43.4209 66.4538 43.7502 65.625 43.7502Z" fill="#778EFB"/>
</svg>
