<svg width="900" height="750" viewBox="0 0 900 750" fill="none" xmlns="http://www.w3.org/2000/svg">
<path d="M442.5 93C494.734 94.791 519.646 101.807 572 149C611.772 184.852 620.5 200.5 654 215.5C678.196 226.334 802 248 833.5 348.5C866.946 455.208 832.159 550.308 749.5 593C658.5 640 586.944 599.985 544.5 582C485.5 557 461.473 546.246 361.5 596.5C268 643.5 164.5 616 104 540C46.897 468.268 25.901 335.232 92 253.5C147.667 184.667 211.5 205.5 264 179C305.473 158.066 355 90 442.5 93Z" fill="url(#paint0_linear_102_13)"/>
<path d="M594.689 540.75C561.062 540.75 529.585 549.935 502.607 565.913C515.486 569.667 528.746 575.324 544.5 582C583.897 598.694 648.382 634.355 730.213 601.802C697.055 564.362 648.635 540.75 594.689 540.75Z" fill="url(#paint1_radial_102_13)"/>
<path d="M766.7 380.322C785.845 380.322 801.365 364.802 801.365 345.657C801.365 326.512 785.845 310.992 766.7 310.992C747.555 310.992 732.035 326.512 732.035 345.657C732.035 364.802 747.555 380.322 766.7 380.322Z" fill="url(#paint2_radial_102_13)"/>
<path d="M107.333 360C126.295 360 141.666 344.629 141.666 325.667C141.666 306.705 126.295 291.334 107.333 291.334C88.3714 291.334 73 306.705 73 325.667C73 344.629 88.3714 360 107.333 360Z" fill="url(#paint3_radial_102_13)"/>
<path d="M107.333 348C119.667 348 129.666 338.001 129.666 325.667C129.666 313.333 119.667 303.334 107.333 303.334C94.9988 303.334 85 313.333 85 325.667C85 338.001 94.9988 348 107.333 348Z" fill="url(#paint4_linear_102_13)"/>
<path d="M107.333 348C119.667 348 129.666 338.001 129.666 325.667C129.666 313.333 119.667 303.334 107.333 303.334C94.9988 303.334 85 313.333 85 325.667C85 338.001 94.9988 348 107.333 348Z" fill="url(#paint5_linear_102_13)"/>
<path d="M99.833 327.5C96.708 327.5 94.166 324.958 94.166 321.833C94.166 318.708 96.708 316.166 99.833 316.166C102.958 316.166 105.5 318.708 105.5 321.833C105.5 324.958 102.958 327.5 99.833 327.5ZM99.833 317.167C97.26 317.167 95.166 319.26 95.166 321.834C95.166 324.408 97.259 326.501 99.833 326.501C102.407 326.501 104.5 324.408 104.5 321.834C104.5 319.26 102.407 317.167 99.833 317.167Z" fill="#FDE1A7"/>
<path d="M116.201 340.891C114.074 340.891 112.265 339.979 111.241 338.389C109.437 335.589 110.688 331.56 114.028 329.407C115.379 328.537 116.89 328.077 118.399 328.077C120.526 328.077 122.335 328.989 123.359 330.58C125.163 333.38 123.913 337.409 120.572 339.561C119.221 340.432 117.71 340.891 116.201 340.891ZM118.398 329.077C117.082 329.077 115.758 329.482 114.569 330.247C111.692 332.101 110.575 335.51 112.081 337.846C112.918 339.145 114.419 339.89 116.201 339.89C117.517 339.89 118.841 339.485 120.03 338.72C122.907 336.866 124.024 333.457 122.518 331.121C121.681 329.822 120.18 329.077 118.398 329.077Z" fill="#DABACC"/>
<path d="M92.587 342.579L91.997 341.771C93.222 340.876 93.925 339.506 93.925 338.01C93.925 335.437 91.832 333.343 89.258 333.343C88.376 333.343 87.509 333.6 86.751 334.086L86.212 333.244C87.131 332.655 88.185 332.343 89.258 332.343C92.383 332.343 94.925 334.885 94.925 338.01C94.925 339.829 94.073 341.494 92.587 342.579Z" fill="#FDE1A7"/>
<path d="M119.37 313.265C116.613 313.265 114.37 311.022 114.37 308.265C114.37 306.967 114.871 305.733 115.782 304.792L116.501 305.487C115.772 306.24 115.371 307.227 115.371 308.264C115.371 310.47 117.165 312.264 119.371 312.264C120.92 312.264 122.301 311.386 122.973 309.972L123.876 310.402C123.048 312.141 121.28 313.265 119.37 313.265Z" fill="#FDE1A7"/>
<path d="M766.7 369.657C779.955 369.657 790.7 358.912 790.7 345.657C790.7 332.402 779.955 321.657 766.7 321.657C753.445 321.657 742.7 332.402 742.7 345.657C742.7 358.912 753.445 369.657 766.7 369.657Z" fill="url(#paint6_linear_102_13)"/>
<path d="M788.905 355.274C788.845 355.274 788.786 355.264 788.727 355.241C784.83 353.756 777.846 348.331 770.935 341.42C764.024 334.509 758.599 327.525 757.116 323.628C757.017 323.37 757.147 323.081 757.405 322.983C757.663 322.884 757.952 323.014 758.05 323.273C759.488 327.048 764.823 333.894 771.643 340.713C778.462 347.532 785.308 352.868 789.083 354.306C789.342 354.404 789.471 354.693 789.372 354.952C789.297 355.152 789.106 355.274 788.905 355.274Z" fill="#0090B2"/>
<path d="M790.684 347.055C790.609 347.055 790.533 347.038 790.46 347.002C786.744 345.148 781.461 340.977 776.327 335.843C771.303 330.819 767.17 325.61 765.271 321.911C765.144 321.665 765.242 321.364 765.487 321.238C765.732 321.113 766.035 321.209 766.16 321.454C768.014 325.066 772.08 330.181 777.034 335.136C782.096 340.198 787.282 344.299 790.907 346.108C791.154 346.231 791.254 346.531 791.131 346.778C791.044 346.953 790.867 347.055 790.684 347.055Z" fill="#8A69E3"/>
<path d="M601.609 558.918C577.128 558.918 554.278 565.894 534.926 577.955C538.023 579.255 541.204 580.603 544.499 582C579.468 596.817 634.199 626.578 703.281 610.322C680.294 579.146 643.316 558.918 601.609 558.918Z" fill="url(#paint7_linear_102_13)"/>
<path d="M703.282 610.322C685.059 585.609 658.042 567.788 626.85 561.456C621.971 562.432 617.485 564.728 617.749 569.75C618.249 579.25 632.715 580.147 639.999 581.75C648.333 583.583 660 587.333 660.249 593.5C660.431 597.999 654.584 598.665 651.584 598.665C648.584 598.665 644.088 597.249 643.332 599.833C642.333 603.25 649.631 604.493 649.166 607C648.478 610.715 638.939 610.004 637.035 613.204C657.256 616.061 679.412 615.939 703.282 610.322Z" fill="url(#paint8_linear_102_13)"/>
<path d="M584.5 591.5C587.5 587.333 609.666 586.833 608 578.833C606.565 571.946 580.333 577.167 579.166 569.333C578.475 564.69 584.223 561.512 589.783 559.484C569.778 561.345 551.124 567.859 534.927 577.955C538.024 579.255 541.205 580.603 544.5 582C555.863 586.815 569.316 593.208 584.668 599.087C583.5 596.419 582.999 593.584 584.5 591.5Z" fill="url(#paint9_linear_102_13)"/>
<path d="M345.74 567.416C342.962 567.416 340.155 567.198 337.311 566.743C320.436 564.038 308.858 554.194 302.897 537.482C293.553 511.287 301.448 474.452 308.96 466.002C309.143 465.796 309.459 465.778 309.666 465.96C309.873 466.144 309.891 466.46 309.708 466.666C303.326 473.846 294.061 509.729 303.84 537.146C309.669 553.488 320.983 563.113 337.47 565.754C340.249 566.199 342.999 566.412 345.718 566.413C373.647 566.415 398.577 543.956 424.839 520.301C446.735 500.579 469.376 480.185 496.806 468.539C536.142 451.838 571.074 453.945 596.582 455.484C609.961 456.293 621.515 456.989 630.215 454.846C645.063 451.188 657.745 443.078 670.01 435.235C676.68 430.969 683.577 426.559 690.774 422.887C716.529 409.745 737.324 407.587 743.753 417.391C751.496 429.2 737.765 440.344 724.484 451.121C713.727 459.85 702.605 468.877 702.168 478.355C701.517 492.504 721.894 497.466 722.1 497.507C722.371 497.561 722.546 497.824 722.493 498.095C722.438 498.366 722.172 498.543 721.905 498.488C721.69 498.445 700.481 493.266 701.171 478.308C701.628 468.382 712.928 459.212 723.856 450.344C737.386 439.364 750.167 428.991 742.919 417.939C736.789 408.592 716.5 410.885 691.231 423.777C684.078 427.426 677.201 431.824 670.55 436.077C658.217 443.964 645.465 452.119 630.455 455.816C621.61 457.996 609.984 457.295 596.523 456.481C571.119 454.95 536.32 452.848 497.198 469.458C469.922 481.039 447.344 501.376 425.51 521.043C399.1 544.831 374.025 567.415 345.74 567.416Z" fill="#4578BA"/>
<path d="M661.783 443.232C663.004 443.232 663.994 442.242 663.994 441.021C663.994 439.8 663.004 438.81 661.783 438.81C660.562 438.81 659.572 439.8 659.572 441.021C659.572 442.242 660.562 443.232 661.783 443.232Z" fill="#4578BA"/>
<path d="M644.731 444.22C625.21 444.22 599.346 435.473 585.387 408.06C565.387 368.784 597.478 336.342 601.751 333.9C601.987 333.763 602.295 333.845 602.434 334.086C602.571 334.326 602.488 334.631 602.247 334.768C598.059 337.162 566.616 368.995 586.277 407.607C604.779 443.938 644.469 446.994 661.606 440.554C661.863 440.453 662.153 440.588 662.25 440.846C662.348 441.105 662.217 441.393 661.958 441.49C657.479 443.173 651.484 444.22 644.731 444.22Z" fill="#4578BA"/>
<path d="M750.125 432.375C749.989 432.375 749.854 432.32 749.756 432.212C749.569 432.008 749.584 431.691 749.788 431.506C753.817 427.832 754.771 419.274 753.906 416.923C753.81 416.664 753.943 416.376 754.202 416.281C754.457 416.182 754.748 416.318 754.844 416.577C755.805 419.182 754.854 428.24 750.462 432.244C750.366 432.332 750.245 432.375 750.125 432.375Z" fill="#4578BA"/>
<path d="M796.789 369.683C796.246 367.802 795.452 366.079 794.584 364.414C792.872 361.165 790.829 358.157 788.688 355.239C788.413 355.871 788.117 356.495 787.785 357.106C789.633 359.752 791.35 362.488 792.778 365.336C793.571 366.939 794.278 368.588 794.716 370.247C794.931 371.072 795.072 371.907 795.057 372.667C795.046 373.434 794.84 374.066 794.476 374.407C794.12 374.757 793.495 374.937 792.735 374.928C791.984 374.924 791.161 374.764 790.347 374.531C788.712 374.06 787.089 373.32 785.514 372.495C782.358 370.83 779.358 368.789 776.446 366.642C770.624 362.326 765.192 357.449 760.075 352.283C757.501 349.713 755.006 347.064 752.616 344.327C750.215 341.601 747.893 338.805 745.734 335.898C743.572 332.998 741.539 329.992 739.869 326.839C739.044 325.265 738.304 323.643 737.831 322.008C737.597 321.195 737.437 320.373 737.432 319.621C737.422 318.869 737.599 318.251 737.941 317.893C738.721 317.071 740.51 317.214 742.112 317.637C743.772 318.073 745.423 318.779 747.026 319.571C749.88 320.996 752.615 322.72 755.27 324.561C755.869 324.236 756.48 323.948 757.098 323.678C754.194 321.525 751.185 319.491 747.942 317.776C746.278 316.908 744.556 316.112 742.675 315.569C741.733 315.303 740.746 315.097 739.67 315.091C739.132 315.091 738.566 315.147 737.987 315.319C737.698 315.411 737.407 315.525 737.128 315.688C736.995 315.76 736.844 315.859 736.69 315.98C736.515 316.111 736.494 316.147 736.387 316.235L736.375 316.245L736.345 316.275C735.373 317.241 735.111 318.545 735.098 319.599C735.083 320.685 735.27 321.684 735.517 322.639C736.023 324.545 736.785 326.295 737.621 327.988C739.31 331.364 741.336 334.504 743.487 337.537C747.81 343.591 752.724 349.164 757.954 354.404C763.227 359.601 768.808 364.496 774.835 368.853C777.856 371.02 781.001 373.037 784.374 374.731C786.066 375.567 787.815 376.33 789.721 376.836C790.675 377.084 791.673 377.272 792.759 377.257C793.814 377.244 795.117 376.982 796.083 376.011C797.039 375.03 797.275 373.732 797.269 372.686C797.26 371.612 797.054 370.625 796.789 369.683Z" fill="url(#paint10_linear_102_13)"/>
<path d="M759.917 506.25L771.583 500.667C771.583 500.667 773.833 505.833 773.833 513.167C773.833 520.667 770.917 526.25 770.917 526.25L759.833 520.667L759.917 506.25Z" fill="url(#paint11_radial_102_13)"/>
<path d="M649.485 522.776C648.583 518.597 667.333 498.501 681.833 495.001C696.333 491.501 758.479 495.771 759.812 497.938C761.145 500.105 761.342 508.2 761.5 513.667C761.601 517.166 761.666 527.001 759.833 527.501C758 528.001 713.858 536.198 700.333 536.334C683.75 536.5 650.735 528.567 649.485 522.776Z" fill="url(#paint12_linear_102_13)"/>
<path d="M756.667 473.666V499H735.417C735.417 499 733.537 498.417 733.5 496.833C733.459 495.084 745.5 475.25 748.688 474C751.224 473.005 756.667 473.666 756.667 473.666Z" fill="url(#paint13_linear_102_13)"/>
<path d="M711.666 531.418C711.666 531.418 727.083 525.418 732.833 523.418C738.583 521.418 756.294 516.227 756.294 516.227C756.294 516.227 778.227 525.278 780.083 526.834C781.25 527.813 781.658 529.85 780.833 530.834C779.75 532.125 770.062 537.375 767.929 537.932C765.941 538.451 755.125 538.375 738.416 537.001C726.424 536.015 710.249 534.835 711.666 531.418Z" fill="url(#paint14_linear_102_13)"/>
<path d="M749.689 538.292C749.529 538.292 749.372 538.215 749.275 538.072C749.121 537.843 749.18 537.533 749.409 537.378C755.042 533.559 769.568 526.662 777.278 524.57C777.549 524.499 777.819 524.656 777.891 524.922C777.963 525.189 777.806 525.463 777.539 525.535C769.912 527.604 755.542 534.428 749.969 538.206C749.884 538.264 749.786 538.292 749.689 538.292Z" fill="#C0EAFB"/>
<path d="M658.695 509.771C652.951 515.371 649.062 520.82 649.485 522.777C650.048 525.389 657.082 528.434 666.146 530.978C667.447 517.986 662.356 512.317 658.695 509.771Z" fill="url(#paint15_linear_102_13)"/>
<path d="M693.166 505.167C695.611 503.461 696.508 497.401 696.83 493.721C690.335 493.852 684.969 494.244 681.833 495.001C677.029 496.16 671.761 499.147 666.893 502.768C672.598 504.585 689.321 507.85 693.166 505.167Z" fill="url(#paint16_linear_102_13)"/>
<path d="M704.417 516.501C706.626 516.501 708.417 514.71 708.417 512.501C708.417 510.292 706.626 508.501 704.417 508.501C702.208 508.501 700.417 510.292 700.417 512.501C700.417 514.71 702.208 516.501 704.417 516.501Z" fill="url(#paint17_radial_102_13)"/>
<path d="M717.834 515.168C719.905 515.168 721.584 513.489 721.584 511.418C721.584 509.347 719.905 507.668 717.834 507.668C715.763 507.668 714.084 509.347 714.084 511.418C714.084 513.489 715.763 515.168 717.834 515.168Z" fill="url(#paint18_radial_102_13)"/>
<path d="M730.25 514.085C732.137 514.085 733.667 512.555 733.667 510.668C733.667 508.781 732.137 507.251 730.25 507.251C728.363 507.251 726.833 508.781 726.833 510.668C726.833 512.555 728.363 514.085 730.25 514.085Z" fill="url(#paint19_radial_102_13)"/>
<path d="M751.875 497.292C751.599 497.292 751.375 497.068 751.375 496.792V473.455C751.375 473.179 751.599 472.955 751.875 472.955C752.151 472.955 752.375 473.179 752.375 473.455V496.792C752.375 497.068 752.151 497.292 751.875 497.292Z" fill="#C0EAFB"/>
<path d="M656.25 302.5C659.896 302.467 670.997 302.042 679 293.75C689.375 283 685.75 262.5 685.75 262.5C685.75 262.5 689.507 262.35 691 265.625C692.938 269.875 690.375 277.625 692 278.5C694.71 279.959 695.375 273.625 697.5 274.625C699.625 275.625 699.338 280.498 698.875 284.875C698.437 289.008 695.562 292.901 696.562 294.188C697.875 295.876 701 291.625 702 293.625C703 295.625 699.375 299.5 696.187 301.563C693.415 303.357 688.624 305.001 688.749 306.001C688.874 307.001 693.374 307.001 692.624 309.001C691.874 311.001 686.249 310.251 682.874 310.251C679.499 310.251 674.374 310.126 671.624 312.376C668.874 314.626 656.25 302.5 656.25 302.5Z" fill="url(#paint20_linear_102_13)"/>
<path d="M669.334 283.167C669.177 283.167 669.022 283.094 668.925 282.956C668.766 282.731 668.819 282.419 669.044 282.259C669.108 282.213 675.467 277.641 675.168 272.865C674.975 269.784 673.291 268.216 671.342 266.4C670.076 265.22 668.767 264.001 667.737 262.254C663.662 255.344 668.018 250.051 670.042 248.594C670.264 248.433 670.577 248.483 670.739 248.708C670.901 248.932 670.85 249.244 670.626 249.406C668.81 250.714 664.903 255.482 668.599 261.746C669.556 263.368 670.811 264.537 672.025 265.668C674.044 267.548 675.95 269.324 676.168 272.802C676.502 278.135 669.905 282.875 669.624 283.074C669.534 283.137 669.434 283.167 669.334 283.167Z" fill="#E8878E"/>
<path d="M661.667 270.333C661.566 270.333 661.465 270.303 661.377 270.241C657.971 267.82 657.024 264.555 656.83 262.243C656.556 258.979 657.647 255.979 658.813 254.813C659.008 254.618 659.325 254.618 659.52 254.813C659.715 255.008 659.715 255.325 659.52 255.52C658.499 256.541 657.586 259.304 657.826 262.159C658.003 264.261 658.863 267.227 661.957 269.426C662.182 269.586 662.234 269.898 662.074 270.123C661.978 270.26 661.823 270.333 661.667 270.333Z" fill="#E8878E"/>
<path d="M700.501 308C700.486 308 700.473 308 700.458 307.998C700.184 307.975 699.979 307.733 700.002 307.458C700.154 305.632 702.414 304.738 706.516 303.116C707.766 302.622 709.198 302.055 710.805 301.373C713.071 300.41 714.519 299.069 715.109 297.388C715.938 295.026 714.884 292.649 714.393 291.737C714.262 291.494 714.353 291.191 714.596 291.059C714.838 290.929 715.142 291.019 715.274 291.262C715.828 292.291 717.013 294.981 716.053 297.719C715.365 299.677 713.732 301.216 711.196 302.293C709.581 302.98 708.141 303.549 706.883 304.046C703.277 305.472 701.099 306.333 700.998 307.541C700.977 307.803 700.758 308 700.501 308Z" fill="#E8878E"/>
<path d="M610.259 244.467L611.055 244.527C611.411 244.571 611.818 244.614 612.132 244.673C612.782 244.783 613.426 244.92 614.053 245.099C615.311 245.449 616.516 245.925 617.654 246.499C619.932 247.649 621.943 249.184 623.667 250.947C627.11 254.484 629.439 258.924 630.594 263.602C631.722 268.183 631.95 272.913 631.223 277.631C630.471 282.322 628.796 287.074 625.432 291.226L617.321 284.273C619.238 282.205 620.658 279.132 621.343 275.855C622.044 272.573 622.072 269.018 621.432 265.667C620.824 262.421 619.385 259.338 617.281 256.923C616.23 255.72 615.013 254.694 613.701 253.937C613.046 253.559 612.367 253.247 611.679 253.012C611.335 252.89 610.989 252.798 610.642 252.717L610.213 252.625C610.034 252.593 609.729 252.563 609.493 252.532L610.259 244.467Z" fill="url(#paint21_linear_102_13)"/>
<path d="M618.017 258.492C617.769 258.492 617.553 258.307 617.522 258.054C617.488 257.78 617.682 257.53 617.956 257.496C619.683 257.279 622.781 256.256 624.142 251.833C624.222 251.569 624.504 251.42 624.766 251.502C625.031 251.583 625.178 251.863 625.097 252.127C623.573 257.087 620.047 258.242 618.081 258.488C618.059 258.491 618.038 258.492 618.017 258.492Z" fill="#FFA2BA"/>
<path d="M625.087 269.314C623.762 269.314 622.529 269.099 621.652 268.84C621.387 268.762 621.236 268.484 621.314 268.219C621.391 267.954 621.667 267.801 621.935 267.881C624.116 268.523 628.753 268.907 630.676 265.76C630.819 265.524 631.125 265.449 631.364 265.594C631.599 265.738 631.674 266.046 631.53 266.282C630.097 268.63 627.447 269.314 625.087 269.314Z" fill="#FFA2BA"/>
<path d="M627.639 280.905C623.507 280.905 621.269 278.767 620.403 277.687C620.23 277.471 620.264 277.157 620.48 276.984C620.695 276.813 621.009 276.846 621.182 277.061C622.134 278.248 624.961 280.864 630.642 279.537C630.92 279.474 631.18 279.642 631.244 279.91C631.307 280.179 631.14 280.448 630.871 280.511C629.684 280.787 628.609 280.905 627.639 280.905Z" fill="#FFA2BA"/>
<path d="M650.971 363.342C650.493 362.418 650.071 361.447 649.75 360.417C647.676 353.747 648.416 347.334 648.416 347.334C648.416 347.334 639.499 344.501 632.416 343.001C625.333 341.501 615.851 339.48 615.851 339.48C616.083 345.918 620.167 359.084 628.833 367.334C632.521 370.846 635.862 373.16 638.803 374.751C642.503 374.747 648.5 370.061 650.971 363.342Z" fill="url(#paint22_linear_102_13)"/>
<path d="M658.583 385.167C661.312 384.5 659.833 375.75 659 373.75C658.293 372.052 653.656 368.544 650.971 363.342C648.5 370.061 642.503 374.747 638.803 374.75C645.05 378.128 649.487 378.226 651.583 379.5C653.507 380.67 655.658 385.882 658.583 385.167Z" fill="url(#paint23_linear_102_13)"/>
<path d="M565.833 293.583C561.914 295.861 559.31 297.13 552.75 297.333C552.397 297.344 552.035 297.348 551.667 297.349C552.689 300.731 552.832 306.495 551.096 310.787C557.067 313.258 563.282 314.246 569.248 313.525C572.672 309.736 569.563 297.875 565.833 293.583Z" fill="url(#paint24_linear_102_13)"/>
<path d="M551.667 297.349C546.428 297.349 539.825 296.324 537.083 296.416C532.75 296.562 530.187 298.249 528.312 300.187C526.709 301.843 526.291 305.145 528.124 306.312C530.419 307.772 536.166 305.666 539.332 305.249C542.498 304.832 544.999 308.249 550.999 310.749C551.03 310.762 551.062 310.772 551.095 310.786C552.832 306.495 552.689 300.731 551.667 297.349Z" fill="url(#paint25_linear_102_13)"/>
<path d="M650.375 316.375C658.645 306.861 670.666 309.825 672.975 312.108C672.843 311.962 672.718 311.809 672.583 311.666C662.752 301.252 648.834 298.416 634.833 291.333C622.843 285.267 610.167 276.833 606.5 272.875C606.5 272.875 600.167 281.75 585.194 288.207C575.029 292.59 561.75 291.125 561.75 291.125C561.75 291.125 562.931 302.275 567.5 310.75C574.375 323.5 597.75 336.75 618.125 343.25C632.37 347.794 642.009 349.071 652.125 350.125C649.875 346 641.97 326.045 650.375 316.375Z" fill="url(#paint26_linear_102_13)"/>
<path d="M649.844 317.544C649.823 317.544 649.803 317.543 649.782 317.54C616.163 313.422 598.109 287.852 595.947 282.988C595.835 282.736 595.949 282.44 596.201 282.328C596.454 282.218 596.749 282.329 596.861 282.582C598.985 287.361 616.749 312.487 649.903 316.548C650.177 316.581 650.373 316.831 650.339 317.105C650.308 317.358 650.093 317.544 649.844 317.544Z" fill="#00E2EC"/>
<path d="M685.825 354.997C683.223 347.209 683.575 323.917 672.974 312.109C670.665 309.825 658.644 306.861 650.374 316.376C641.969 326.046 649.874 346.001 652.124 350.126C657.529 358.649 663.524 364.169 668.978 367.94C673.168 367.166 683.317 361.159 685.825 354.997Z" fill="url(#paint27_linear_102_13)"/>
<path d="M689.625 382.75C693.837 382.568 693.229 372.122 692.5 367.625C691.75 363 687.752 360.032 686 355.5C685.939 355.343 685.883 355.168 685.825 354.997C683.317 361.159 673.168 367.166 668.979 367.94C674.75 371.93 679.914 373.962 683.125 375.501C684.739 376.273 685.75 382.917 689.625 382.75Z" fill="url(#paint28_linear_102_13)"/>
<path d="M679.876 362.595C679.749 362.595 679.622 362.547 679.524 362.45C658.893 342.041 660.789 323.086 661.503 315.95C661.53 315.675 661.779 315.48 662.05 315.502C662.324 315.529 662.526 315.774 662.497 316.049C661.797 323.055 659.935 341.666 680.227 361.739C680.423 361.933 680.425 362.25 680.231 362.446C680.134 362.546 680.005 362.595 679.876 362.595Z" fill="#00E2EC"/>
<path d="M619.375 293.625C615.959 290.148 608.375 287.75 601.5 290.625C592.283 294.479 584.121 306.532 578.306 313.278C581.619 314.023 586.153 316.149 588.125 319.812C589.494 322.354 589.989 325.061 590.153 327.077C600.055 325.244 611.329 320.832 617.75 314.625C626.247 306.411 622.875 297.188 619.375 293.625Z" fill="url(#paint29_linear_102_13)"/>
<path d="M578.306 313.278C576.997 314.796 575.807 316.048 574.75 316.875C568.461 321.797 562.529 325.273 560 327.875C557.812 330.125 555.75 333.625 557.875 335.625C560.777 338.357 564.938 335.938 569.625 331.875C573.375 328.625 575.337 328.799 585.304 327.787C586.861 327.629 588.491 327.385 590.154 327.078C589.99 325.062 589.495 322.355 588.126 319.813C586.152 316.149 581.619 314.023 578.306 313.278Z" fill="url(#paint30_linear_102_13)"/>
<path d="M588.125 320.313C587.918 320.313 587.725 320.184 587.652 319.977C587.562 319.716 587.7 319.431 587.961 319.341C601.35 314.694 616.803 297.934 618.922 293.413C619.04 293.163 619.339 293.055 619.587 293.173C619.837 293.29 619.945 293.588 619.828 293.838C617.596 298.598 602.167 315.469 588.289 320.285C588.234 320.304 588.18 320.313 588.125 320.313Z" fill="#00E2EC"/>
<path d="M544.257 265.238C546.375 265.187 555.875 262.437 557.5 259.625C559.125 256.813 563 259.437 563 259.437C563 259.437 563.438 267.125 555.062 267.375C546.686 267.625 544.257 265.238 544.257 265.238Z" fill="url(#paint31_linear_102_13)"/>
<path d="M550.007 265.863C550.236 265.176 551.563 264.031 553.938 263.187C556.502 262.276 558.626 261.999 562.063 261.937C558.969 264.041 560.376 267.178 557.834 267.375C551.917 267.833 550.007 265.863 550.007 265.863Z" fill="#D039A3"/>
<path d="M566.834 235.333C566.501 232.666 567.085 219.75 568.168 219.416C569.251 219.082 577 227.583 577.084 234.083C573.501 236 566.834 235.333 566.834 235.333Z" fill="url(#paint32_linear_102_13)"/>
<path d="M530.75 240.375C531.509 239.331 532.625 239.375 533.75 239.375C534.875 239.375 556.375 239.625 556.375 239.625C556.375 239.625 564.5 234 570.75 233.25C577 232.5 585.375 233.375 585.375 233.375C585.375 233.375 589 229.625 592.125 226.875C595.25 224.125 598.875 220.5 600.25 220.875C601.625 221.25 600.621 230.955 599 235.75C597.5 240.188 593.875 244.625 593.875 244.625C593.875 244.625 595.25 253 598.5 260.125C601.33 266.33 606.5 272.875 606.5 272.875C606.5 272.875 600.132 282.882 587.25 287.5C570.687 293.438 561.75 291.125 561.75 291.125C561.75 291.125 561.553 286.75 561.625 283C561.713 278.442 561.875 274.625 561.875 274.625C561.875 274.625 556.299 273.886 552 272.125C546.812 270 544.375 268.062 544.257 265.238C545.304 265.558 548.255 266.341 553.125 265.375C561.313 263.75 561.75 260.125 561.75 260.125C561.75 260.125 555.85 261.888 546.5 258.125C536.25 254 527.751 244.5 530.75 240.375Z" fill="url(#paint33_linear_102_13)"/>
<path d="M540.669 239.446C537.06 239.406 534.146 239.375 533.75 239.375C532.625 239.375 531.509 239.331 530.75 240.375C529.257 242.429 530.615 245.814 533.619 249.206C536.237 247.902 540.308 244.619 540.669 239.446Z" fill="url(#paint34_linear_102_13)"/>
<path d="M565.084 242.584C566.143 242.584 567.001 241.726 567.001 240.667C567.001 239.608 566.143 238.75 565.084 238.75C564.025 238.75 563.167 239.608 563.167 240.667C563.167 241.726 564.025 242.584 565.084 242.584Z" fill="#212F66"/>
<path d="M564.553 240.604C564.956 240.604 565.282 240.278 565.282 239.875C565.282 239.472 564.956 239.146 564.553 239.146C564.15 239.146 563.824 239.472 563.824 239.875C563.824 240.278 564.15 240.604 564.553 240.604Z" fill="#0090B2"/>
<path d="M577.418 246.583C578.661 246.583 579.668 245.576 579.668 244.333C579.668 243.09 578.661 242.083 577.418 242.083C576.175 242.083 575.168 243.09 575.168 244.333C575.168 245.576 576.175 246.583 577.418 246.583Z" fill="#212F66"/>
<path d="M576.5 244.459C576.937 244.459 577.292 244.104 577.292 243.667C577.292 243.23 576.937 242.875 576.5 242.875C576.063 242.875 575.708 243.23 575.708 243.667C575.708 244.104 576.063 244.459 576.5 244.459Z" fill="#0090B2"/>
<path d="M592.064 206.676C571.192 193.701 543.752 200.103 530.778 220.975C517.804 241.847 524.205 269.287 545.078 282.262C565.95 295.237 593.39 288.835 606.364 267.963C619.338 247.091 612.938 219.651 592.064 206.676ZM600.56 264.767C590.179 281.468 568.224 286.59 551.524 276.208C534.824 265.826 529.701 243.872 540.084 227.171C550.465 210.471 572.42 205.348 589.12 215.73C605.819 226.111 610.942 248.066 600.56 264.767Z" fill="url(#paint35_radial_102_13)"/>
<g opacity="0.5">
<path d="M565.525 210.913L564.421 211.159L563.404 211.43C562.715 211.627 562.033 211.842 561.36 212.073C560.309 212.435 559.164 211.876 558.801 210.825C558.44 209.774 558.998 208.629 560.05 208.267C560.191 208.218 560.348 208.185 560.49 208.169C561.282 208.083 562.072 208.018 562.861 207.975L564.07 207.933L565.201 207.937C566.033 207.939 566.706 208.617 566.703 209.449C566.702 210.165 566.198 210.763 565.525 210.913Z" fill="white"/>
</g>
<g opacity="0.5">
<path d="M555.181 214.097L554.052 214.598L553.031 215.094C552.339 215.45 551.655 215.826 550.984 216.224C549.646 217.026 548.364 217.923 547.149 218.908C544.72 220.876 542.568 223.196 540.771 225.777C540.24 226.544 539.187 226.735 538.42 226.203C537.668 225.682 537.473 224.656 537.966 223.893C539.851 220.995 542.149 218.352 544.779 216.08C546.093 214.944 547.49 213.9 548.955 212.959C549.688 212.491 550.438 212.047 551.201 211.625L552.389 211.003L553.506 210.465C554.501 209.986 555.696 210.404 556.176 211.399C556.656 212.394 556.238 213.59 555.241 214.069C555.225 214.077 555.197 214.089 555.181 214.097Z" fill="white"/>
</g>
<path d="M609.077 275.22C608.002 274.337 607.115 273.539 606.5 272.875C606.5 272.875 605.762 271.939 604.691 270.443C594.681 284.39 577.847 290.977 561.66 288.44C561.7 290.017 561.75 291.125 561.75 291.125C561.75 291.125 561.91 292.628 562.337 294.946C579.905 297.105 597.908 289.967 609.077 275.22Z" fill="url(#paint36_linear_102_13)"/>
<path d="M611.71 233.547C610.386 228.485 608.169 223.666 605.191 219.381C602.207 215.102 598.471 211.354 594.195 208.387C589.933 205.391 585.172 203.135 580.145 201.791C575.126 200.435 569.869 199.998 564.698 200.468C554.347 201.393 544.381 206.085 537.153 213.532C529.892 220.936 525.352 230.95 524.679 241.287C523.887 251.61 526.889 262.184 533.022 270.553C539.112 278.95 548.288 285.05 558.394 287.458C568.498 289.909 579.452 288.594 588.731 283.871C593.381 281.54 597.631 278.385 601.188 274.567C604.755 270.759 607.64 266.306 609.692 261.495C607.715 266.338 604.895 270.849 601.369 274.733C597.851 278.628 593.619 281.878 588.954 284.308C579.603 289.147 568.511 290.536 558.241 288.106C547.969 285.715 538.604 279.572 532.35 271.046C526.057 262.552 522.922 251.779 523.684 241.216C524.429 230.646 529.122 220.454 536.56 212.95C543.967 205.4 554.13 200.689 564.639 199.807C575.15 198.862 585.933 201.834 594.476 207.989C598.751 211.055 602.457 214.894 605.392 219.243C608.319 223.599 610.464 228.466 611.71 233.547Z" fill="white"/>
<path d="M611.698 233.55C610.052 234.099 608.471 234.934 607.037 236.081C600.49 241.315 599.425 250.868 604.66 257.417C606.068 259.179 607.792 260.541 609.683 261.491C613.443 252.441 613.999 242.642 611.698 233.55Z" fill="url(#paint37_linear_102_13)"/>
<path d="M210.687 298.64C210.09 299.223 209.379 300.181 208.73 301.201C208.077 302.229 207.467 303.344 206.909 304.493C205.793 306.797 204.884 309.245 204.187 311.734C202.795 316.718 202.262 321.889 202.703 326.868C203.136 331.852 204.551 336.634 206.838 340.978C209.117 345.33 212.251 349.249 215.948 352.704L205.302 363.046C200.977 358.249 197.252 352.71 194.699 346.593C192.129 340.491 190.799 333.855 190.805 327.328C190.797 320.791 192.055 314.397 194.278 308.451C195.397 305.475 196.751 302.602 198.389 299.848C199.211 298.471 200.102 297.123 201.114 295.8C202.139 294.484 203.229 293.164 204.814 291.861L210.687 298.64Z" fill="url(#paint38_linear_102_13)"/>
<path d="M203.603 311.587C198.683 311.587 195.395 307.83 194.468 306.626C194.3 306.407 194.341 306.093 194.56 305.925C194.779 305.758 195.092 305.799 195.261 306.017C196.159 307.186 199.469 310.97 204.342 310.557C204.617 310.53 204.859 310.738 204.882 311.013C204.905 311.288 204.701 311.53 204.426 311.553C204.147 311.576 203.872 311.587 203.603 311.587Z" fill="#00E2EC"/>
<path d="M196.936 327.294C194.143 327.294 191.931 326.241 190.588 325.38C190.356 325.231 190.288 324.922 190.437 324.689C190.586 324.456 190.895 324.388 191.128 324.538C193.131 325.823 197.253 327.574 202.361 324.848C202.603 324.718 202.907 324.809 203.037 325.054C203.167 325.298 203.075 325.6 202.831 325.73C200.685 326.876 198.695 327.294 196.936 327.294Z" fill="#00E2EC"/>
<path d="M195.226 345.771C194.832 345.771 194.463 345.758 194.123 345.739C193.847 345.723 193.637 345.487 193.653 345.211C193.669 344.935 193.906 344.722 194.181 344.741C197.174 344.916 202.679 344.482 205.888 339.644C206.04 339.414 206.35 339.35 206.581 339.504C206.811 339.656 206.874 339.967 206.721 340.197C203.604 344.896 198.554 345.771 195.226 345.771Z" fill="#00E2EC"/>
<path d="M604.334 522.333C603.334 518.999 582.667 519 580 518.666C578.531 518.482 573.422 501.872 564.125 482.772C548.334 485.333 536.5 498.666 533.316 503.878L533.318 503.883C551.738 519.747 564.496 535.069 570.834 536.832C576.679 538.459 605.334 525.667 604.334 522.333Z" fill="url(#paint39_linear_102_13)"/>
<path d="M564.125 482.772C556.538 467.187 546.163 449.946 532.697 438.615C515.009 423.731 496.667 417 482.333 415.667C482.333 415.667 462.92 423.927 453.167 433.167C443.667 442.167 443 449.335 441.166 461.834C459.999 463 476.67 467.843 500.667 480.833C512.972 487.494 523.886 495.76 533.318 503.884L533.316 503.879C536.5 498.666 548.334 485.333 564.125 482.772Z" fill="url(#paint40_linear_102_13)"/>
<path d="M529.501 483.5C529.186 483.5 528.875 483.352 528.681 483.073C508.845 454.688 461.41 437.827 451.077 436.08C450.533 435.987 450.166 435.472 450.258 434.927C450.35 434.383 450.858 434.022 451.411 434.108C461.911 435.883 510.13 453.036 530.319 481.927C530.635 482.38 530.525 483.003 530.073 483.32C529.898 483.441 529.698 483.5 529.501 483.5Z" fill="#9F36AD"/>
<path d="M361.25 280.5C361.25 280.5 346.625 277.75 320.875 279C312.882 279.388 305.84 280.135 299.871 280.995C298.334 286.929 295.954 292.524 292.867 297.643C297.5 298.75 301.5 299.25 321 308.625C340.5 318 369.381 337.197 379.875 335.25C392 333 422.375 321.875 423.625 305.125C424.937 287.547 361.25 280.5 361.25 280.5Z" fill="url(#paint41_linear_102_13)"/>
<path d="M423.625 305.125C423.923 301.128 420.854 297.677 415.944 294.728C411.508 297.796 406.052 303.19 404.334 310.75C402.805 317.478 403.696 323.317 404.427 326.381C414.283 321.159 422.969 313.919 423.625 305.125Z" fill="url(#paint42_linear_102_13)"/>
<path d="M365.833 292.75C365.756 292.75 365.677 292.738 365.6 292.713C339.832 284.286 298.686 286.712 295.596 287.869C295.211 288.016 294.777 287.818 294.631 287.43C294.485 287.042 294.682 286.61 295.07 286.465C298.333 285.241 339.41 282.57 366.066 291.288C366.46 291.417 366.675 291.84 366.546 292.234C366.443 292.549 366.149 292.75 365.833 292.75Z" fill="#9F36AD"/>
<path d="M422.875 298.625C419.062 288.687 402.786 280.647 392.649 275.624C389.713 274.169 386.512 272.793 383.241 271.46C382.81 274.692 381.413 279.857 376.999 284.167C371.688 289.351 364.842 290.283 360.498 290.348C363.587 294.16 366.775 297.707 369.999 300.376C378.129 307.108 394.722 317.42 407.257 318.553C412.644 319.04 417.394 317.911 420.176 313.913C422.17 311.046 425.785 306.209 422.875 298.625Z" fill="url(#paint43_linear_102_13)"/>
<path d="M420.177 313.912C422.171 311.046 425.785 306.21 422.875 298.625C422.098 296.6 420.797 294.655 419.143 292.797C414.636 295.111 406.504 301.2 404.334 310.75C403.751 313.315 403.524 315.748 403.502 317.952C404.782 318.223 406.044 318.442 407.258 318.552C412.645 319.039 417.395 317.91 420.177 313.912Z" fill="url(#paint44_linear_102_13)"/>
<path d="M383.242 271.46C371.055 266.491 357.889 262.117 353.75 256.5C349.629 250.908 351.187 241.312 349.375 234.5C348.023 229.419 343.812 223.312 339.625 224C334.53 224.836 333.75 231.75 334.75 237.25C335.75 242.75 337 247.25 333.875 248C331.198 248.643 327.724 246.49 326.125 245.875C325.042 245.458 320.779 245.354 322.25 250.375C324.167 256.917 335.583 262.19 342.125 267.75C347.293 272.143 353.651 281.897 360.499 290.347C364.843 290.282 371.689 289.35 377 284.166C381.414 279.857 382.811 274.692 383.242 271.46Z" fill="url(#paint45_linear_102_13)"/>
<path d="M443.5 387.25C443.5 387.25 426.667 361.333 390.375 334.5C351.055 305.428 295.766 292.262 290.5 292.5C290.5 292.5 280.25 305.75 269 312.75C257.75 319.75 234.5 320.5 234.5 320.5C234.5 320.5 238.25 352.375 254.5 390.875C259.735 403.278 265.372 412.335 272.153 424.218C292 459 323.5 495 365.75 497.25C359.667 463.333 385.5 412 443.5 387.25Z" fill="url(#paint46_linear_102_13)"/>
<path d="M412.136 406.254C411.844 406.254 411.554 406.127 411.357 405.881C368.596 352.799 316.521 317.236 284.92 302.911C284.417 302.683 284.194 302.091 284.422 301.587C284.65 301.085 285.242 300.862 285.746 301.089C317.546 315.505 369.932 351.271 412.914 404.627C413.26 405.057 413.193 405.687 412.763 406.032C412.578 406.182 412.356 406.254 412.136 406.254Z" fill="#FFA2BA"/>
<path d="M365.833 476.778C365.793 476.778 365.754 476.776 365.714 476.771C315.523 470.851 282.854 420.028 281.487 417.867C281.192 417.4 281.331 416.783 281.798 416.488C282.265 416.191 282.882 416.332 283.178 416.799C294.574 434.822 326.54 470.137 365.949 474.785C366.497 474.849 366.889 475.347 366.825 475.895C366.765 476.404 366.333 476.778 365.833 476.778Z" fill="#FFA2BA"/>
<path d="M295.167 354.333C293.334 363.333 326.834 393.875 336.5 393.875C345.879 393.875 380.237 355.098 390.61 334.676C390.53 334.617 390.455 334.558 390.375 334.5C375.975 323.853 359.434 315.341 343.991 308.838C329.796 317.443 297.177 344.467 295.167 354.333Z" fill="url(#paint47_linear_102_13)"/>
<path d="M334.246 365.697C339.08 365.697 342.999 361.778 342.999 356.944C342.999 352.11 339.08 348.191 334.246 348.191C329.412 348.191 325.493 352.11 325.493 356.944C325.493 361.778 329.412 365.697 334.246 365.697Z" fill="#1AA9E8"/>
<path d="M347.154 347.857C349.264 347.857 350.974 346.147 350.974 344.037C350.974 341.927 349.264 340.217 347.154 340.217C345.044 340.217 343.334 341.927 343.334 344.037C343.334 346.147 345.044 347.857 347.154 347.857Z" fill="#1AA9E8"/>
<path d="M334.246 376.194C323.632 376.194 314.996 367.558 314.996 356.944C314.996 346.33 323.632 337.694 334.246 337.694C344.86 337.694 353.496 346.33 353.496 356.944C353.496 367.558 344.86 376.194 334.246 376.194ZM334.246 339.694C324.734 339.694 316.996 347.432 316.996 356.944C316.996 366.456 324.734 374.194 334.246 374.194C343.758 374.194 351.496 366.456 351.496 356.944C351.496 347.432 343.758 339.694 334.246 339.694Z" fill="#1AA9E8"/>
<path d="M356.214 338.379C355.713 338.379 355.211 338.191 354.822 337.815C354.029 337.046 354.009 335.78 354.778 334.987L369.005 320.306C369.775 319.513 371.041 319.494 371.833 320.262C372.626 321.031 372.646 322.297 371.877 323.09L357.65 337.771C357.258 338.176 356.736 338.379 356.214 338.379Z" fill="#9F36AD"/>
<path d="M347.265 330.342C346.759 330.342 346.252 330.151 345.863 329.768C345.075 328.994 345.065 327.727 345.84 326.94L358.061 314.515C358.835 313.728 360.103 313.718 360.889 314.492C361.677 315.266 361.687 316.533 360.912 317.32L348.691 329.745C348.299 330.143 347.782 330.342 347.265 330.342Z" fill="#9F36AD"/>
<path d="M366.776 345.884C366.304 345.884 365.83 345.718 365.449 345.38C364.623 344.647 364.548 343.382 365.281 342.556L379.4 326.646C380.135 325.82 381.399 325.746 382.224 326.478C383.05 327.211 383.125 328.476 382.392 329.302L368.273 345.212C367.877 345.657 367.328 345.884 366.776 345.884Z" fill="#9F36AD"/>
<path d="M560.134 404.43C531.98 394.586 496.914 380.86 473 381.75C453 382.495 443.5 387.25 443.5 387.25C385.5 412 359.667 463.333 365.75 497.25C439.922 501.2 461.688 457.557 501 444C516.513 438.65 535.665 438.034 553.164 438.387C553.164 438.386 553.163 438.385 553.163 438.384C548.993 420.101 557.667 408.167 560.134 404.43Z" fill="url(#paint48_linear_102_13)"/>
<path d="M472.75 408.834C493.712 407.011 499.185 391.519 498.876 384.803C489.501 382.689 480.675 381.464 473 381.75C453 382.495 443.5 387.25 443.5 387.25C444.417 397.834 453.011 410.551 472.75 408.834Z" fill="url(#paint49_linear_102_13)"/>
<path d="M470.55 400.5C469.725 400.5 469.054 399.834 469.05 399.008L468.958 381.641C468.954 380.813 469.622 380.138 470.45 380.133C470.453 380.133 470.455 380.133 470.458 380.133C471.283 380.133 471.954 380.799 471.958 381.625L472.05 398.992C472.054 399.82 471.386 400.495 470.558 400.5C470.555 400.5 470.553 400.5 470.55 400.5Z" fill="#9F36AD"/>
<path d="M481.922 400.484C481.097 400.484 480.426 399.817 480.422 398.992L480.336 382.054C480.332 381.225 481 380.55 481.828 380.546C481.831 380.546 481.834 380.546 481.836 380.546C482.661 380.546 483.332 381.213 483.336 382.038L483.422 398.976C483.426 399.805 482.758 400.48 481.93 400.484C481.927 400.484 481.924 400.484 481.922 400.484Z" fill="#9F36AD"/>
<path d="M459.429 400.563C458.625 400.563 457.96 399.926 457.931 399.117L457.362 383.147C457.333 382.319 457.98 381.624 458.807 381.594C459.628 381.556 460.329 382.211 460.36 383.039L460.929 399.009C460.958 399.837 460.311 400.532 459.484 400.562C459.465 400.563 459.446 400.563 459.429 400.563Z" fill="#9F36AD"/>
<path d="M376.92 477.423C373.214 477.423 369.478 477.215 365.715 476.772C365.167 476.708 364.775 476.21 364.839 475.662C364.904 475.113 365.402 474.723 365.949 474.786C405.799 479.489 443.12 457.104 467.815 442.294C476.729 436.948 483.769 432.726 489.152 430.731C506.716 424.22 533.12 425.745 552.177 428.17C552.725 428.24 553.113 428.74 553.043 429.288C552.973 429.836 552.48 430.218 551.925 430.154C533.087 427.756 507.029 426.236 489.847 432.605C484.639 434.536 477.319 438.925 468.843 444.008C446.23 457.57 413.128 477.423 376.92 477.423Z" fill="#FFA2BA"/>
<path d="M599.5 437.5C603.851 435.674 609.668 432.135 616.25 421.25C620.583 414.084 623.917 400.674 621.25 400.75C615.417 400.917 608.486 413.203 599 414C590.906 414.68 576.719 410.228 560.134 404.43C557.667 408.167 548.993 420.101 553.163 438.384C553.163 438.385 553.164 438.386 553.164 438.387C573.83 438.802 592.189 440.568 599.5 437.5Z" fill="url(#paint50_linear_102_13)"/>
<path d="M572 432C575.314 432 578 429.314 578 426C578 422.686 575.314 420 572 420C568.686 420 566 422.686 566 426C566 429.314 568.686 432 572 432Z" fill="#9F36AD"/>
<path d="M266.5 451.5C268.75 430.25 275.5 418.625 276.25 402C277.068 383.858 271.144 331.164 237.25 323.75C231.25 322.437 224.5 323.813 224.5 323.813C210.833 343 197.667 371 198.833 407C200.119 446.682 223.14 472.857 236.833 486.5C236.949 486.615 237.058 486.725 237.173 486.839C241.457 482.806 251.705 475.947 266.715 475.665C265.932 467.629 265.693 459.117 266.5 451.5Z" fill="url(#paint51_linear_102_13)"/>
<path d="M218.75 423.875C214.518 410.496 204.051 406.97 198.828 406.712C198.831 406.809 198.831 406.903 198.834 407C199.434 425.504 204.761 441.069 211.664 453.798C217.426 449.575 223 437.309 218.75 423.875Z" fill="url(#paint52_linear_102_13)"/>
<path d="M202.52 431.675C201.871 431.675 201.273 431.251 201.081 430.598C200.848 429.803 201.303 428.969 202.098 428.736L212.014 425.825C212.808 425.595 213.642 426.049 213.876 426.842C214.109 427.637 213.654 428.471 212.859 428.704L202.943 431.615C202.802 431.655 202.659 431.675 202.52 431.675Z" fill="#9F36AD"/>
<path d="M200.734 423.652C200.085 423.652 199.487 423.228 199.295 422.575C199.062 421.78 199.517 420.946 200.312 420.713L209.752 417.942C210.547 417.711 211.38 418.165 211.614 418.959C211.847 419.754 211.392 420.588 210.597 420.821L201.157 423.592C201.016 423.633 200.874 423.652 200.734 423.652Z" fill="#9F36AD"/>
<path d="M204.946 440.127C204.322 440.127 203.74 439.735 203.527 439.112C203.259 438.328 203.677 437.475 204.461 437.208L213.992 433.949C214.778 433.678 215.629 434.099 215.897 434.883C216.165 435.667 215.747 436.52 214.963 436.787L205.432 440.046C205.271 440.102 205.106 440.127 204.946 440.127Z" fill="#9F36AD"/>
<path d="M243.001 471.667C242.661 471.667 242.33 471.494 242.143 471.182C241.971 470.896 241.744 470.528 241.468 470.079C222.97 440.082 218.316 413.983 217.668 397.372C216.195 359.604 227.29 332.729 234.079 322.804C234.39 322.348 235.014 322.231 235.469 322.543C235.925 322.855 236.042 323.477 235.73 323.933C229.081 333.656 218.214 360.048 219.667 397.294C220.306 413.666 224.902 439.402 243.171 469.029C243.452 469.486 243.684 469.861 243.859 470.152C244.143 470.626 243.99 471.24 243.516 471.524C243.354 471.621 243.176 471.667 243.001 471.667Z" fill="#FFA2BA"/>
<path d="M260.688 514.625C262.792 521.32 257.25 528.167 256.875 534.125C256.451 540.861 264.421 550.096 268.625 549.875C272.583 549.667 274.625 545 274.5 541.75C274.375 538.5 272.875 530.75 275.75 530.125C278.625 529.5 277.782 535.26 279.125 537.25C280.25 538.917 283.083 538.833 283.875 536.5C284.683 534.118 285 527.417 283 523.25C280.556 518.157 276 512.625 272.75 505.25C270.733 500.673 267.995 488.808 266.715 475.665C251.706 475.947 241.458 482.806 237.173 486.839C253.521 503.124 258.639 508.108 260.688 514.625Z" fill="url(#paint53_linear_102_13)"/>
<path d="M263.625 280.625C265.056 282.875 273.25 292 277.875 294.5C276.5 298.75 270.875 305.5 262 309.625C254.736 313.001 245.687 314.375 245.687 314.375C245.687 314.375 242.249 306 240.124 296.062C238.681 289.313 238.124 282.999 238.124 282.999C238.124 282.999 243.937 286.187 251.249 285.999C258.453 285.815 263.625 280.625 263.625 280.625Z" fill="url(#paint54_linear_102_13)"/>
<path d="M264.583 266.083C261.666 254.416 252.75 242.583 250.333 239.416H243.416L218.999 254.416L218.249 267.249C218.249 267.249 221.606 271.523 226.981 277.201C224.884 278.06 223.416 280.052 223.416 282.373C223.416 285.48 226.046 287.998 229.291 287.998C231.666 287.998 233.706 286.647 234.632 284.706C243.432 291.981 255.127 291.88 260.666 288.081C266.483 284.095 267.5 277.75 264.583 266.083Z" fill="url(#paint55_linear_102_13)"/>
<path d="M242.5 267.25C243.605 267.25 244.5 266.355 244.5 265.25C244.5 264.145 243.605 263.25 242.5 263.25C241.395 263.25 240.5 264.145 240.5 265.25C240.5 266.355 241.395 267.25 242.5 267.25Z" fill="#212F66"/>
<path d="M256.583 257.5C257.595 257.5 258.416 256.679 258.416 255.667C258.416 254.655 257.595 253.834 256.583 253.834C255.571 253.834 254.75 254.655 254.75 255.667C254.75 256.679 255.571 257.5 256.583 257.5Z" fill="#212F66"/>
<path d="M249.545 256.284C250.969 254.683 261.307 263.145 261.04 264.927C260.773 266.709 258.125 267.938 256.312 268.25C254.335 264.687 248.832 257.086 249.545 256.284Z" fill="url(#paint56_linear_102_13)"/>
<path d="M256.719 278.084C255.552 278.084 254.45 277.701 253.534 276.977C253.317 276.806 253.281 276.491 253.452 276.275C253.623 276.058 253.938 276.022 254.154 276.193C254.892 276.776 255.779 277.085 256.718 277.085C259.01 277.085 260.874 275.207 260.874 272.897C260.874 272.613 260.846 272.328 260.79 272.052C260.735 271.781 260.91 271.517 261.18 271.463C261.452 271.406 261.715 271.583 261.769 271.853C261.839 272.195 261.874 272.546 261.874 272.897C261.875 275.757 259.563 278.084 256.719 278.084Z" fill="#954374"/>
<path d="M255.833 225.75C253.25 223.333 249.416 226.167 247.083 228.75C244.75 231.333 242.909 234.342 240.75 234.167C237.667 233.917 238.732 226.551 234.917 227C229.25 227.667 226.417 240.833 224.584 241.833C222.751 242.833 221.214 238.691 218.334 240.5C214.751 242.75 215.858 253.404 215.417 256C215.12 257.747 209.984 260.929 210.5 267.25C211.122 274.865 218.624 280.52 223.418 282.398C223.418 282.39 223.417 282.382 223.417 282.375C223.417 279.71 225.355 277.482 227.954 276.902C227.932 274.175 227.412 271.052 226.75 268.751C225.167 263.251 221.543 258.98 221.543 258.98C223.876 258.73 238.334 254.418 248.417 245.585C257.032 238.037 258.553 228.294 255.833 225.75Z" fill="url(#paint57_linear_102_13)"/>
<path d="M238.881 218.156C221.823 218.156 206.889 227.244 198.652 240.842C206.414 233.814 216.709 229.531 228.006 229.531C252.169 229.531 271.756 249.118 271.756 273.281C271.756 289.091 263.368 302.94 250.802 310.627C270.986 305.35 285.881 286.994 285.881 265.156C285.881 239.199 264.838 218.156 238.881 218.156Z" fill="url(#paint58_radial_102_13)"/>
<path d="M250.904 305.348C235.84 305.348 219.551 299.977 211.334 288.667C196.501 268.25 205.876 230.625 222.022 221.284C204.397 228.062 191.882 245.142 191.882 265.156C191.882 291.114 212.924 312.156 238.882 312.156C249.775 312.156 259.795 308.44 267.765 302.22C262.529 304.233 256.848 305.348 250.904 305.348Z" fill="url(#paint59_linear_102_13)"/>
<path d="M204.021 282.324C201.106 282.324 198.398 283.199 196.134 284.691C200.17 293.508 206.847 300.857 215.16 305.727C217.168 303.257 218.376 300.11 218.376 296.679C218.377 288.75 211.95 282.324 204.021 282.324Z" fill="url(#paint60_linear_102_13)"/>
<g opacity="0.5">
<path d="M262.126 234.452L263.13 235.095L264.168 235.815C264.839 236.3 265.498 236.804 266.146 237.328C266.919 237.953 267.039 239.087 266.413 239.861C265.788 240.634 264.654 240.754 263.881 240.128C263.794 240.058 263.707 239.971 263.636 239.889C263.148 239.311 262.642 238.744 262.12 238.189L261.337 237.387L260.472 236.567C259.931 236.055 259.909 235.201 260.421 234.661C260.873 234.183 261.592 234.11 262.126 234.452Z" fill="white"/>
</g>
<g opacity="0.5">
<path d="M271.253 243.104C272.248 244.607 273.168 246.229 273.952 247.878C274.74 249.533 275.41 251.243 275.956 252.99C277.049 256.484 277.637 260.127 277.713 263.769C277.733 264.702 276.992 265.474 276.059 265.494C275.144 265.513 274.383 264.796 274.336 263.888C274.167 260.562 273.533 257.271 272.45 254.141C271.909 252.576 271.259 251.051 270.504 249.58C269.745 248.103 268.901 246.708 267.931 245.332C267.294 244.429 267.51 243.181 268.412 242.544C269.314 241.907 270.563 242.123 271.2 243.025C271.21 243.039 271.219 243.052 271.228 243.066L271.253 243.104Z" fill="white"/>
</g>
<path d="M299.871 280.995C291.62 282.183 285.437 283.584 281.687 284.558C274.299 300.832 257.917 312.157 238.88 312.157C237.17 312.157 235.483 312.06 233.819 311.882C229.748 316.329 225.344 322.539 222.906 326.109C228.008 327.442 233.36 328.157 238.879 328.157C268.204 328.156 292.846 308.122 299.871 280.995Z" fill="url(#paint61_linear_102_13)"/>
<path d="M222.017 221.272C227.132 219.182 232.651 218.078 238.196 217.92C243.743 217.787 249.325 218.636 254.591 220.443C265.15 224.031 274.27 231.589 279.913 241.217C285.56 250.846 287.585 262.543 285.535 273.482C284.518 278.956 282.522 284.236 279.676 289.002C276.799 293.747 273.108 297.992 268.779 301.424C277.18 294.253 282.976 284.166 284.778 273.348C285.679 267.944 285.683 262.394 284.716 257.015C283.752 251.632 281.824 246.429 279.051 241.722C276.313 236.994 272.719 232.765 268.519 229.265C264.313 225.767 259.486 223.03 254.337 221.167C244.029 217.443 232.393 217.486 222.017 221.272Z" fill="white"/>
<path d="M347.689 251.309C347.819 251.822 347.509 252.343 346.996 252.474L330.387 257.076C329.874 257.206 329.353 256.896 329.222 256.383L318.822 219.891C318.692 219.379 319.002 218.857 319.514 218.726L337.123 213.124C337.635 212.994 338.157 213.304 338.287 213.816L347.689 251.309Z" fill="url(#paint62_linear_102_13)"/>
<path d="M343.787 248.675L330.587 252.411L321.44 220.626L335.568 215.909L343.787 248.675Z" fill="url(#paint63_linear_102_13)"/>
<path d="M368.543 176.495C369.001 178.087 368.081 179.749 366.489 180.207L299.246 200.552C297.654 201.01 295.992 200.09 295.534 198.498L289.593 176.835C289.135 175.243 290.055 173.581 291.648 173.123L358.89 153.278C360.482 152.82 362.144 153.74 362.602 155.333L368.543 176.495Z" fill="#C7A0F6"/>
<path d="M359.721 155.16C360.163 155.16 360.558 155.458 360.678 155.873L366.622 177.048C366.774 177.578 366.467 178.133 365.911 178.293L298.695 198.63C298.603 198.656 298.51 198.67 298.417 198.67C297.975 198.67 297.581 198.372 297.464 197.969L291.517 176.282C291.417 175.935 291.528 175.657 291.603 175.521C291.678 175.386 291.855 175.144 292.215 175.04L359.444 155.199C359.535 155.174 359.628 155.161 359.721 155.16ZM359.721 153.16C359.447 153.16 359.168 153.198 358.891 153.278L291.649 173.123C290.057 173.581 289.137 175.243 289.594 176.835L295.535 198.498C295.913 199.813 297.113 200.67 298.416 200.67C298.69 200.67 298.97 200.632 299.247 200.552L366.49 180.207C368.082 179.749 369.002 178.087 368.544 176.495L362.604 155.332C362.225 154.017 361.024 153.16 359.721 153.16Z" fill="#FDE1A7"/>
<path d="M330.5 231.5C332.525 231.5 334.167 229.858 334.167 227.833C334.167 225.808 332.525 224.166 330.5 224.166C328.475 224.166 326.833 225.808 326.833 227.833C326.833 229.858 328.475 231.5 330.5 231.5Z" fill="#FE697A"/>
<path d="M330.501 228.583C330.48 228.583 330.459 228.582 330.437 228.581C330.024 228.546 329.718 228.183 329.752 227.77L332.929 190.071C332.964 189.658 333.33 189.361 333.74 189.386C334.153 189.421 334.459 189.784 334.425 190.197L331.248 227.896C331.214 228.288 330.887 228.583 330.501 228.583Z" fill="#FDE1A7"/>
<path d="M341.561 164.518L333.825 174.357L346.011 178.967L341.561 164.518Z" fill="white"/>
<path d="M339.783 164.352L314.683 172.083L329.746 177.119L339.783 164.352Z" fill="white"/>
<path d="M317.813 187.635L325.052 177.132L313.376 173.229L317.813 187.635Z" fill="white"/>
<path d="M332.854 175.593L330.599 178.461C330.454 178.646 330.235 178.748 330.009 178.748C329.929 178.748 329.849 178.735 329.771 178.709L326.533 177.626L319.395 187.982L344.866 180.136L332.854 175.593Z" fill="white"/>
<path d="M368.486 415.04C368.709 418.001 367.167 419.251 365.237 419.884L314.317 436.993C312.083 437.432 309.914 435.979 309.474 433.745L303.26 402.206C302.819 399.972 304.208 397.75 306.444 397.039C306.444 397.039 321.937 392.438 332.125 390.375C342.059 388.363 360.365 384.429 360.365 384.429C362.599 383.99 364.25 385.292 364.813 387.875L368.486 415.04Z" fill="url(#paint64_linear_102_13)"/>
<path d="M339.833 415.083C339.749 415.083 339.665 415.069 339.583 415.04L302.929 402.074C302.538 401.936 302.334 401.508 302.472 401.117C302.61 400.727 303.039 400.521 303.429 400.66L339.59 413.451L363.125 385.012C363.388 384.695 363.863 384.65 364.181 384.912C364.5 385.177 364.545 385.649 364.281 385.969L340.412 414.812C340.266 414.986 340.053 415.083 339.833 415.083Z" fill="#C44B5F"/>
<path d="M311.457 437.264C311.305 437.264 311.152 437.218 311.019 437.122C310.683 436.88 310.607 436.411 310.849 436.075L326.225 414.728C326.467 414.393 326.936 414.316 327.272 414.558C327.608 414.8 327.684 415.269 327.442 415.605L312.066 436.952C311.919 437.155 311.69 437.264 311.457 437.264Z" fill="#C44B5F"/>
<path d="M367.802 418.896C367.702 418.896 367.601 418.876 367.504 418.834L348.701 410.688C348.321 410.523 348.146 410.082 348.311 409.702C348.476 409.321 348.916 409.145 349.297 409.311L368.1 417.457C368.48 417.622 368.655 418.063 368.49 418.443C368.368 418.727 368.092 418.896 367.802 418.896Z" fill="#C44B5F"/>
<path d="M520.764 214.471C521.108 216.855 519.929 217.95 518.403 218.569L478.149 232.209C476.365 232.688 474.531 231.631 474.051 229.848L467.29 204.674C466.811 202.891 467.813 201.017 469.582 200.319C469.582 200.319 481.863 195.746 489.991 193.517C497.917 191.344 510.511 188.154 510.511 188.154C512.295 187.675 513.701 188.639 514.299 190.698L520.764 214.471Z" fill="url(#paint65_linear_102_13)"/>
<path d="M497.546 212.974C497.501 212.974 497.456 212.968 497.411 212.955L467.044 204.48C466.778 204.406 466.623 204.13 466.697 203.864C466.77 203.598 467.043 203.439 467.313 203.517L497.331 211.894L512.854 188.55C513.006 188.319 513.316 188.258 513.547 188.41C513.776 188.563 513.839 188.873 513.686 189.103L497.961 212.749C497.868 212.893 497.71 212.974 497.546 212.974Z" fill="#D66976"/>
<path d="M475.809 232.478C475.718 232.478 475.627 232.454 475.545 232.403C475.31 232.257 475.238 231.948 475.384 231.714L486.65 213.599C486.796 213.365 487.106 213.295 487.338 213.438C487.573 213.584 487.645 213.893 487.499 214.127L476.233 232.242C476.139 232.394 475.976 232.478 475.809 232.478Z" fill="#D66976"/>
<path d="M520.382 217.52C520.301 217.52 520.218 217.5 520.143 217.459L504.484 208.903C504.241 208.77 504.152 208.466 504.285 208.224C504.417 207.982 504.723 207.893 504.963 208.025L520.622 216.581C520.865 216.714 520.954 217.018 520.821 217.26C520.729 217.426 520.559 217.52 520.382 217.52Z" fill="#D66976"/>
<path d="M483.183 326.798C484.122 328.917 483.315 330.241 482.064 331.212L450.6 356.138C449.072 357.046 447.096 356.546 446.188 355.018L431.354 334.953C430.444 333.425 430.884 331.428 432.342 330.319C432.342 330.319 442.529 322.876 449.481 318.689C456.259 314.606 466.19 307.916 466.19 307.916C467.717 307.007 469.272 307.533 470.363 309.285L483.183 326.798Z" fill="url(#paint66_linear_102_13)"/>
<path d="M431.074 334.857C430.799 334.857 430.574 334.634 430.574 334.358C430.574 334.082 430.797 333.858 431.073 333.857L461.05 333.788L468.441 307.685C468.516 307.42 468.797 307.263 469.058 307.34C469.325 307.415 469.479 307.692 469.404 307.957L461.91 334.423C461.848 334.638 461.653 334.786 461.43 334.787L431.074 334.857C431.074 334.857 431.075 334.857 431.074 334.857Z" fill="#D66976"/>
<path d="M448.372 357.034C448.339 357.034 448.306 357.031 448.272 357.024C448.001 356.969 447.827 356.705 447.882 356.435L451.595 338.208C451.651 337.937 451.918 337.763 452.185 337.818C452.456 337.873 452.63 338.137 452.576 338.407L448.862 356.634C448.813 356.871 448.605 357.034 448.372 357.034Z" fill="#D66976"/>
<path d="M483.494 329.761C483.488 329.761 483.482 329.761 483.477 329.761L467.014 329.198C466.739 329.189 466.523 328.957 466.532 328.681C466.542 328.405 466.816 328.175 467.049 328.199L483.512 328.762C483.787 328.771 484.003 329.003 483.994 329.279C483.984 329.548 483.763 329.761 483.494 329.761Z" fill="#D66976"/>
<path d="M162.475 423.643C164.449 425.522 164.168 427.323 163.247 428.942L143.799 468.187C142.549 469.862 140.177 470.208 138.502 468.957L115.352 451.845C113.675 450.595 113.253 448.227 114.337 446.366C114.337 446.366 120.05 435.693 125.715 428.014C131.238 420.528 139.012 408.786 139.012 408.786C140.262 407.112 142.188 406.981 144.161 408.394L162.475 423.643Z" fill="url(#paint67_linear_102_13)"/>
<path d="M114.778 452.073C114.476 452.073 114.191 451.888 114.077 451.59C113.93 451.202 114.125 450.77 114.512 450.622L144.904 439.081L141.193 407.542C141.144 407.131 141.439 406.758 141.85 406.709C142.257 406.664 142.634 406.954 142.683 407.366L146.463 439.486C146.504 439.828 146.306 440.153 145.984 440.275L115.045 452.024C114.957 452.058 114.867 452.073 114.778 452.073Z" fill="#D66976"/>
<path d="M141.556 470.12C141.322 470.12 141.112 469.954 141.066 469.716L136.89 448.244C136.837 447.973 137.014 447.71 137.285 447.657C137.554 447.607 137.818 447.782 137.871 448.053L142.047 469.525C142.1 469.796 141.923 470.059 141.652 470.112C141.62 470.117 141.588 470.12 141.556 470.12Z" fill="#D66976"/>
<path d="M149.289 431.48C149.079 431.48 148.883 431.346 148.814 431.136C148.728 430.873 148.871 430.591 149.133 430.505L163.766 425.702C164.03 425.613 164.311 425.759 164.397 426.02C164.483 426.283 164.34 426.565 164.078 426.651L149.445 431.454C149.393 431.473 149.34 431.48 149.289 431.48Z" fill="#D66976"/>
<path d="M125.75 480.25C127.683 480.25 129.25 478.683 129.25 476.75C129.25 474.817 127.683 473.25 125.75 473.25C123.817 473.25 122.25 474.817 122.25 476.75C122.25 478.683 123.817 480.25 125.75 480.25Z" fill="#FE697A"/>
<path d="M292.346 419.628C294.279 419.628 295.846 418.061 295.846 416.128C295.846 414.195 294.279 412.628 292.346 412.628C290.413 412.628 288.846 414.195 288.846 416.128C288.846 418.061 290.413 419.628 292.346 419.628Z" fill="#FE697A"/>
<path d="M427.116 350.52C429.049 350.52 430.616 348.953 430.616 347.02C430.616 345.087 429.049 343.52 427.116 343.52C425.183 343.52 423.616 345.087 423.616 347.02C423.616 348.953 425.183 350.52 427.116 350.52Z" fill="#FE697A"/>
<path d="M500.912 238.749C502.845 238.749 504.412 237.182 504.412 235.249C504.412 233.316 502.845 231.749 500.912 231.749C498.979 231.749 497.412 233.316 497.412 235.249C497.412 237.182 498.979 238.749 500.912 238.749Z" fill="#FE697A"/>
<path d="M488.167 186C487.626 186 487.181 185.568 487.167 185.024C487.077 181.324 486.14 178.683 484.303 176.949C480.459 173.323 472.726 173.583 462.944 173.914L460.365 174C456.559 174.112 454.143 173.427 452.723 171.829C450.791 169.655 451.281 166.387 451.799 162.927C452.268 159.806 452.751 156.578 451.582 153.901C448.125 145.978 427.733 146.206 410.824 150.963C393.301 155.891 379.724 161.246 379.589 161.299C379.076 161.501 378.494 161.251 378.291 160.737C378.087 160.224 378.339 159.643 378.853 159.439C378.989 159.385 392.655 153.995 410.283 149.037C424.526 145.031 448.83 142.592 453.417 153.1C454.815 156.305 454.265 159.98 453.778 163.223C453.311 166.337 452.908 169.026 454.218 170.5C455.2 171.606 457.193 172.095 460.302 172.001L462.875 171.917C473.124 171.57 481.223 171.297 485.674 175.496C487.92 177.615 489.062 180.716 489.166 184.976C489.179 185.528 488.742 185.987 488.19 186C488.183 186 488.175 186 488.167 186Z" fill="#FDE1A7"/>
<path d="M493.836 177.652C493.43 177.652 493.096 177.328 493.086 176.92C492.921 170.131 490.135 166.923 483.469 165.846C483.06 165.78 482.781 165.395 482.848 164.986C482.914 164.577 483.308 164.3 483.707 164.365C491.049 165.551 494.404 169.411 494.586 176.883C494.596 177.297 494.269 177.641 493.855 177.651C493.848 177.652 493.842 177.652 493.836 177.652Z" fill="#FDE1A7"/>
<path d="M384.605 150.706C384.369 150.706 384.136 150.595 383.99 150.386C383.752 150.047 383.835 149.579 384.174 149.342C386.34 147.825 397.916 141.809 410.884 142.332C411.298 142.349 411.62 142.698 411.604 143.111C411.588 143.525 411.232 143.856 410.825 143.831C398.255 143.323 387.118 149.112 385.035 150.571C384.904 150.662 384.754 150.706 384.605 150.706Z" fill="#FDE1A7"/>
<path d="M410.729 168.581C410.635 168.581 410.539 168.563 410.445 168.525C407.852 167.464 400.511 167.579 398.144 167.705C397.706 167.716 397.377 167.408 397.355 166.996C397.334 166.582 397.651 166.229 398.064 166.207C398.16 166.203 407.618 165.749 411.013 167.137C411.396 167.294 411.58 167.732 411.423 168.116C411.305 168.405 411.025 168.581 410.729 168.581Z" fill="#FDE1A7"/>
<path d="M479.918 307C479.877 307 479.835 306.998 479.793 306.992C479.245 306.924 478.856 306.424 478.925 305.876C479.658 300.006 485.827 297.292 491.792 294.667C498.522 291.706 504.879 288.909 505 282.149C505.086 277.393 501.126 274.954 496.542 272.13C492.02 269.344 486.893 266.187 486.174 260.118C485.322 252.928 490.608 246.934 494.854 242.118C497.177 239.484 499.372 236.995 499.952 234.973C500.104 234.443 500.658 234.136 501.188 234.287C501.719 234.439 502.026 234.993 501.874 235.524C501.17 237.98 498.938 240.51 496.354 243.441C492.164 248.193 487.414 253.579 488.161 259.882C488.766 264.99 493.053 267.631 497.592 270.426C502.27 273.308 507.107 276.287 507.001 282.184C506.856 290.223 499.281 293.556 492.599 296.497C486.893 299.007 481.503 301.379 480.911 306.123C480.846 306.63 480.415 307 479.918 307Z" fill="#FDE1A7"/>
<path d="M474.501 269.875C474.264 269.875 474.03 269.763 473.885 269.554C468.408 261.696 471.18 254.251 473.41 251.412C473.667 251.086 474.138 251.029 474.463 251.286C474.789 251.542 474.846 252.014 474.59 252.339C474.532 252.412 468.899 259.777 475.115 268.697C475.352 269.037 475.268 269.504 474.928 269.741C474.798 269.832 474.648 269.875 474.501 269.875Z" fill="#FDE1A7"/>
<path d="M375.751 402.375C375.42 402.375 375.096 402.211 374.905 401.91C374.61 401.444 374.748 400.826 375.214 400.53C378.105 398.697 383.187 398.201 389.072 397.626C394.022 397.143 399.632 396.595 404.166 395.104C411.568 392.67 419.705 387.419 420.341 379.979C420.757 375.122 418.475 372.801 416.06 370.345C414.023 368.274 411.917 366.133 411.75 362.547C411.317 353.241 426.071 346.397 426.7 346.11C427.2 345.881 427.795 346.102 428.025 346.605C428.254 347.107 428.033 347.7 427.53 347.93C422.634 350.165 413.451 356.077 413.748 362.454C413.879 365.276 415.55 366.975 417.485 368.943C419.989 371.489 422.827 374.375 422.334 380.149C421.614 388.561 412.8 394.372 404.791 397.004C400.047 398.564 394.32 399.123 389.267 399.616C383.871 400.143 378.773 400.641 376.286 402.22C376.12 402.325 375.934 402.375 375.751 402.375Z" fill="#FDE1A7"/>
<path d="M404.501 361.375C404.463 361.375 404.426 361.373 404.388 361.369C403.839 361.307 403.445 360.812 403.506 360.264C404.783 348.9 412.954 344.334 415.995 343.534C416.529 343.392 417.077 343.713 417.217 344.247C417.357 344.781 417.038 345.328 416.504 345.469C414.012 346.125 406.639 350.292 405.493 360.489C405.437 360.998 405.003 361.375 404.501 361.375Z" fill="#FDE1A7"/>
<path d="M291.142 417.263C288.31 417.263 281.213 415.966 265.753 407.118C263.723 405.956 261.663 404.758 259.572 403.542C238.927 391.536 215.53 377.936 188.669 380.246C168.773 381.964 159.327 393.684 156.223 397.536C155.919 397.912 155.679 398.211 155.497 398.414C155.13 398.827 154.498 398.865 154.085 398.497C153.672 398.131 153.635 397.498 154.002 397.086C154.168 396.899 154.388 396.626 154.666 396.281C157.902 392.264 167.752 380.045 188.498 378.254C215.983 375.87 239.676 389.658 260.579 401.814C262.665 403.027 264.721 404.223 266.747 405.382C286.455 416.66 291.971 415.196 292.024 415.182C292.538 415.025 293.101 415.301 293.275 415.811C293.449 416.32 293.206 416.87 292.704 417.062C292.557 417.118 292.087 417.263 291.142 417.263Z" fill="#FDE1A7"/>
<path d="M151.083 384C150.918 384 150.753 383.946 150.615 383.836C150.292 383.577 150.24 383.105 150.498 382.781C153.235 379.359 161.168 371.525 175.729 372.752C176.142 372.787 176.448 373.149 176.414 373.562C176.379 373.975 176.009 374.28 175.604 374.247C161.773 373.088 154.257 380.484 151.669 383.718C151.521 383.903 151.303 384 151.083 384Z" fill="#FDE1A7"/>
<path d="M123.249 518.25C122.728 518.25 122.289 517.847 122.252 517.319C120.963 498.764 123.123 482.423 124.787 476.48C124.936 475.948 125.489 475.637 126.019 475.787C126.551 475.935 126.861 476.488 126.712 477.019C125.085 482.832 122.976 498.876 124.247 517.18C124.285 517.731 123.87 518.208 123.319 518.247C123.296 518.249 123.272 518.25 123.249 518.25Z" fill="#FDE1A7"/>
<path d="M169.656 583.066C169.527 583.066 169.395 583.041 169.268 582.988C168.94 582.849 161.229 579.539 160.362 573.987C159.793 570.346 161.397 568.017 162.948 565.765C163.869 564.428 164.822 563.046 165.383 561.325C167.523 554.766 162.957 551.163 161.017 550.329C160.51 550.11 160.276 549.522 160.494 549.015C160.711 548.508 161.3 548.276 161.808 548.492C164.214 549.528 169.889 553.964 167.285 561.947C166.634 563.943 165.551 565.514 164.596 566.901C163.085 569.093 161.892 570.826 162.338 573.679C163.034 578.128 169.977 581.116 170.046 581.146C170.554 581.361 170.793 581.948 170.578 582.456C170.416 582.837 170.045 583.066 169.656 583.066Z" fill="#FDE1A7"/>
<path d="M174.371 568.632C174.191 568.632 174.011 568.568 173.868 568.438C173.561 568.161 173.537 567.686 173.815 567.379C176.296 564.636 176.491 561.631 176.217 559.594C175.807 556.543 174.231 554.282 173.243 553.652C172.894 553.429 172.791 552.965 173.014 552.617C173.237 552.267 173.701 552.165 174.05 552.388C175.488 553.305 177.258 556.073 177.704 559.394C178.02 561.747 177.795 565.216 174.928 568.385C174.779 568.549 174.575 568.632 174.371 568.632Z" fill="#FDE1A7"/>
<path d="M370.579 163.507L376.816 153.271L381.754 167.841L370.579 163.507Z" fill="#FE697A"/>
<path d="M142.827 527.515L108.84 521.327C105.525 520.994 103.32 522.463 102.976 525.313C102.976 525.313 102.452 530.392 101.745 537.099C102.492 538.075 103.242 539.045 104.001 539.999C116.841 556.129 131.625 570.065 147.832 581.577L147.366 533.295C147.359 530.737 146.463 528.402 142.827 527.515Z" fill="url(#paint68_linear_102_13)"/>
<path d="M129.19 549.903C128.955 549.903 128.719 549.821 128.529 549.653C128.115 549.287 128.075 548.655 128.441 548.241L145.533 528.882C145.898 528.469 146.53 528.429 146.944 528.794C147.358 529.16 147.398 529.792 147.032 530.206L129.94 549.565C129.743 549.789 129.467 549.903 129.19 549.903Z" fill="#D66976"/>
<path d="M131.655 561.042L106.394 521.191C106.098 520.724 105.481 520.586 105.014 520.881C104.547 521.176 104.409 521.795 104.704 522.261L129.591 561.522L127.088 564.785C127.581 565.238 128.069 565.697 128.566 566.144L131.604 562.185C131.859 561.853 131.879 561.396 131.655 561.042Z" fill="#D66976"/>
<defs>
<linearGradient id="paint0_linear_102_13" x1="189.745" y1="154.376" x2="694.992" y2="659.623" gradientUnits="userSpaceOnUse">
<stop stop-color="#706AED"/>
<stop offset="1" stop-color="#271068"/>
</linearGradient>
<radialGradient id="paint1_radial_102_13" cx="0" cy="0" r="1" gradientUnits="userSpaceOnUse" gradientTransform="translate(604.794 610.454) rotate(5.24423) scale(136.953 69.865)">
<stop stop-color="white" stop-opacity="0.3"/>
<stop offset="0.292" stop-color="#FDFDFE" stop-opacity="0.2124"/>
<stop offset="0.4342" stop-color="#F5F8FB" stop-opacity="0.1697"/>
<stop offset="0.5439" stop-color="#E8EEF6" stop-opacity="0.1368"/>
<stop offset="0.6372" stop-color="#D6DFEF" stop-opacity="0.1089"/>
<stop offset="0.7198" stop-color="#BDCDE6" stop-opacity="0.0841"/>
<stop offset="0.7951" stop-color="#A0B6DB" stop-opacity="0.0615"/>
<stop offset="0.8647" stop-color="#7C9BCE" stop-opacity="0.0406"/>
<stop offset="0.9299" stop-color="#537CBE" stop-opacity="0.021"/>
<stop offset="0.9892" stop-color="#265AAD" stop-opacity="0.01"/>
<stop offset="1" stop-color="#1D53AA" stop-opacity="0"/>
</radialGradient>
<radialGradient id="paint2_radial_102_13" cx="0" cy="0" r="1" gradientUnits="userSpaceOnUse" gradientTransform="translate(766.7 345.657) scale(34.665 34.665)">
<stop stop-color="white" stop-opacity="0.25"/>
<stop offset="0.2938" stop-color="#FDFDFE" stop-opacity="0.1766"/>
<stop offset="0.4368" stop-color="#F6F5FA" stop-opacity="0.1408"/>
<stop offset="0.5472" stop-color="#EAE8F2" stop-opacity="0.1132"/>
<stop offset="0.6409" stop-color="#D9D6E8" stop-opacity="0.0898"/>
<stop offset="0.7241" stop-color="#C3BDDA" stop-opacity="0.069"/>
<stop offset="0.7998" stop-color="#A8A0CA" stop-opacity="0.0501"/>
<stop offset="0.8697" stop-color="#887CB6" stop-opacity="0.0326"/>
<stop offset="0.9348" stop-color="#63549F" stop-opacity="0.0163"/>
<stop offset="0.9946" stop-color="#3A2685" stop-opacity="0.01"/>
<stop offset="1" stop-color="#362283" stop-opacity="0"/>
</radialGradient>
<radialGradient id="paint3_radial_102_13" cx="0" cy="0" r="1" gradientUnits="userSpaceOnUse" gradientTransform="translate(107.333 325.667) scale(34.3335 34.3335)">
<stop stop-color="white" stop-opacity="0.25"/>
<stop offset="0.3207" stop-color="#FDFDFF" stop-opacity="0.1698"/>
<stop offset="0.4767" stop-color="#F6F5FD" stop-opacity="0.1308"/>
<stop offset="0.5972" stop-color="#E9E8FA" stop-opacity="0.1007"/>
<stop offset="0.6995" stop-color="#D8D6F6" stop-opacity="0.0751"/>
<stop offset="0.7902" stop-color="#C1BDF1" stop-opacity="0.0524"/>
<stop offset="0.8728" stop-color="#A5A0EB" stop-opacity="0.0318"/>
<stop offset="0.9475" stop-color="#847DE4" stop-opacity="0.0131"/>
<stop offset="1" stop-color="#6860DE" stop-opacity="0"/>
</radialGradient>
<linearGradient id="paint4_linear_102_13" x1="91.5415" y1="309.875" x2="123.126" y2="341.459" gradientUnits="userSpaceOnUse">
<stop stop-color="#FFE2A8"/>
<stop offset="1" stop-color="#271068"/>
</linearGradient>
<linearGradient id="paint5_linear_102_13" x1="91.5415" y1="309.875" x2="123.126" y2="341.459" gradientUnits="userSpaceOnUse">
<stop stop-color="#FFE2A8"/>
<stop offset="1" stop-color="#A482FF"/>
</linearGradient>
<linearGradient id="paint6_linear_102_13" x1="749.731" y1="328.687" x2="783.672" y2="362.628" gradientUnits="userSpaceOnUse">
<stop stop-color="#8C6AE2"/>
<stop offset="1" stop-color="#5A55F8"/>
</linearGradient>
<linearGradient id="paint7_linear_102_13" x1="534.927" y1="586.981" x2="703.282" y2="586.981" gradientUnits="userSpaceOnUse">
<stop stop-color="#005092"/>
<stop offset="1" stop-color="#8C6AE2"/>
</linearGradient>
<linearGradient id="paint8_linear_102_13" x1="617.739" y1="588.249" x2="703.282" y2="588.249" gradientUnits="userSpaceOnUse">
<stop stop-color="#1AA9E8"/>
<stop offset="1" stop-color="#005092"/>
</linearGradient>
<linearGradient id="paint9_linear_102_13" x1="534.927" y1="579.285" x2="608.089" y2="579.285" gradientUnits="userSpaceOnUse">
<stop stop-color="#005092"/>
<stop offset="1" stop-color="#1AA9E8"/>
</linearGradient>
<linearGradient id="paint10_linear_102_13" x1="757.951" y1="354.406" x2="772.903" y2="339.454" gradientUnits="userSpaceOnUse">
<stop stop-color="#FFE2A8"/>
<stop offset="1" stop-color="#745B7F"/>
</linearGradient>
<radialGradient id="paint11_radial_102_13" cx="0" cy="0" r="1" gradientUnits="userSpaceOnUse" gradientTransform="translate(761.177 513.48) rotate(89.5817) scale(14.5052 13.5014)">
<stop stop-color="#231F20"/>
<stop offset="0.1018" stop-color="#262228"/>
<stop offset="0.2637" stop-color="#2F2A3F"/>
<stop offset="0.4653" stop-color="#3D3865"/>
<stop offset="0.6989" stop-color="#504A99"/>
<stop offset="0.9564" stop-color="#6962DB"/>
<stop offset="1" stop-color="#6D66E7"/>
</radialGradient>
<linearGradient id="paint12_linear_102_13" x1="705.498" y1="536.337" x2="705.498" y2="493.671" gradientUnits="userSpaceOnUse">
<stop stop-color="#1AA9E8"/>
<stop offset="1" stop-color="#B0E1FF"/>
</linearGradient>
<linearGradient id="paint13_linear_102_13" x1="740.918" y1="481.463" x2="757.561" y2="498.106" gradientUnits="userSpaceOnUse">
<stop stop-color="#B0E1FF"/>
<stop offset="1" stop-color="#1AA9E8"/>
</linearGradient>
<linearGradient id="paint14_linear_102_13" x1="729.687" y1="513.397" x2="763.982" y2="547.692" gradientUnits="userSpaceOnUse">
<stop stop-color="#B0E1FF"/>
<stop offset="1" stop-color="#1AA9E8"/>
</linearGradient>
<linearGradient id="paint15_linear_102_13" x1="657.904" y1="530.978" x2="657.904" y2="509.77" gradientUnits="userSpaceOnUse">
<stop stop-color="#6D66E7"/>
<stop offset="0.0436" stop-color="#6962DB"/>
<stop offset="0.3011" stop-color="#504A99"/>
<stop offset="0.5347" stop-color="#3D3865"/>
<stop offset="0.7363" stop-color="#2F2A3F"/>
<stop offset="0.8982" stop-color="#262228"/>
<stop offset="1" stop-color="#231F20"/>
</linearGradient>
<linearGradient id="paint16_linear_102_13" x1="672.593" y1="492.894" x2="693.657" y2="505.055" gradientUnits="userSpaceOnUse">
<stop stop-color="#6D66E7"/>
<stop offset="0.0436" stop-color="#6962DB"/>
<stop offset="0.3011" stop-color="#504A99"/>
<stop offset="0.5347" stop-color="#3D3865"/>
<stop offset="0.7363" stop-color="#2F2A3F"/>
<stop offset="0.8982" stop-color="#262228"/>
<stop offset="1" stop-color="#231F20"/>
</linearGradient>
<radialGradient id="paint17_radial_102_13" cx="0" cy="0" r="1" gradientUnits="userSpaceOnUse" gradientTransform="translate(701.125 510.709) scale(7.0295 7.02947)">
<stop stop-color="#231F20"/>
<stop offset="0.1018" stop-color="#262228"/>
<stop offset="0.2637" stop-color="#2F2A3F"/>
<stop offset="0.4653" stop-color="#3D3865"/>
<stop offset="0.6989" stop-color="#504A99"/>
<stop offset="0.9564" stop-color="#6962DB"/>
<stop offset="1" stop-color="#6D66E7"/>
</radialGradient>
<radialGradient id="paint18_radial_102_13" cx="0" cy="0" r="1" gradientUnits="userSpaceOnUse" gradientTransform="translate(714.521 510.168) scale(7.104 7.10403)">
<stop stop-color="#231F20"/>
<stop offset="0.1018" stop-color="#262228"/>
<stop offset="0.2637" stop-color="#2F2A3F"/>
<stop offset="0.4653" stop-color="#3D3865"/>
<stop offset="0.6989" stop-color="#504A99"/>
<stop offset="0.9564" stop-color="#6962DB"/>
<stop offset="1" stop-color="#6D66E7"/>
</radialGradient>
<radialGradient id="paint19_radial_102_13" cx="0" cy="0" r="1" gradientUnits="userSpaceOnUse" gradientTransform="translate(727.063 509.668) scale(7.02418 7.02422)">
<stop stop-color="#231F20"/>
<stop offset="0.1018" stop-color="#262228"/>
<stop offset="0.2637" stop-color="#2F2A3F"/>
<stop offset="0.4653" stop-color="#3D3865"/>
<stop offset="0.6989" stop-color="#504A99"/>
<stop offset="0.9564" stop-color="#6962DB"/>
<stop offset="1" stop-color="#6D66E7"/>
</radialGradient>
<linearGradient id="paint20_linear_102_13" x1="656.25" y1="287.576" x2="702.169" y2="287.576" gradientUnits="userSpaceOnUse">
<stop stop-color="#FFE2A8"/>
<stop offset="1" stop-color="#728390"/>
</linearGradient>
<linearGradient id="paint21_linear_102_13" x1="609.491" y1="267.847" x2="631.64" y2="267.847" gradientUnits="userSpaceOnUse">
<stop stop-color="#A281FF"/>
<stop offset="1" stop-color="#FF57BD"/>
</linearGradient>
<linearGradient id="paint22_linear_102_13" x1="615.851" y1="357.114" x2="650.971" y2="357.114" gradientUnits="userSpaceOnUse">
<stop stop-color="#FF57BD"/>
<stop offset="1" stop-color="#FE6A77"/>
</linearGradient>
<linearGradient id="paint23_linear_102_13" x1="638.803" y1="374.288" x2="660.155" y2="374.288" gradientUnits="userSpaceOnUse">
<stop stop-color="#C5188E"/>
<stop offset="1" stop-color="#9F36AD"/>
</linearGradient>
<linearGradient id="paint24_linear_102_13" x1="551.096" y1="303.669" x2="570.726" y2="303.669" gradientUnits="userSpaceOnUse">
<stop stop-color="#FF57BD"/>
<stop offset="1" stop-color="#FE6A77"/>
</linearGradient>
<linearGradient id="paint25_linear_102_13" x1="526.921" y1="303.599" x2="552.422" y2="303.599" gradientUnits="userSpaceOnUse">
<stop stop-color="#C5188E"/>
<stop offset="1" stop-color="#9F36AD"/>
</linearGradient>
<linearGradient id="paint26_linear_102_13" x1="574.596" y1="331.416" x2="667.671" y2="297.539" gradientUnits="userSpaceOnUse">
<stop stop-color="#05C5DA"/>
<stop offset="1" stop-color="#5860C4"/>
</linearGradient>
<linearGradient id="paint27_linear_102_13" x1="646.593" y1="338.872" x2="685.825" y2="338.872" gradientUnits="userSpaceOnUse">
<stop stop-color="#00E2EC"/>
<stop offset="1" stop-color="#0090B2"/>
</linearGradient>
<linearGradient id="paint28_linear_102_13" x1="668.98" y1="368.875" x2="693.022" y2="368.875" gradientUnits="userSpaceOnUse">
<stop stop-color="#A281FF"/>
<stop offset="1" stop-color="#FF57BD"/>
</linearGradient>
<linearGradient id="paint29_linear_102_13" x1="591.882" y1="297.469" x2="613.397" y2="318.984" gradientUnits="userSpaceOnUse">
<stop stop-color="#00E2EC"/>
<stop offset="1" stop-color="#0090B2"/>
</linearGradient>
<linearGradient id="paint30_linear_102_13" x1="556.983" y1="325.033" x2="590.153" y2="325.033" gradientUnits="userSpaceOnUse">
<stop stop-color="#A281FF"/>
<stop offset="1" stop-color="#FF57BD"/>
</linearGradient>
<linearGradient id="paint31_linear_102_13" x1="544.257" y1="262.859" x2="563.004" y2="262.859" gradientUnits="userSpaceOnUse">
<stop stop-color="#9F36AD"/>
<stop offset="0.1071" stop-color="#8D3399"/>
<stop offset="0.4036" stop-color="#602A65"/>
<stop offset="0.662" stop-color="#3F243F"/>
<stop offset="0.8695" stop-color="#2A2028"/>
<stop offset="1" stop-color="#231F20"/>
</linearGradient>
<linearGradient id="paint32_linear_102_13" x1="563.99" y1="223.562" x2="575.798" y2="235.37" gradientUnits="userSpaceOnUse">
<stop stop-color="#FFE2A8"/>
<stop offset="1" stop-color="#728390"/>
</linearGradient>
<linearGradient id="paint33_linear_102_13" x1="548.057" y1="223.024" x2="602.603" y2="277.57" gradientUnits="userSpaceOnUse">
<stop stop-color="#FFE2A8"/>
<stop offset="1" stop-color="#728390"/>
</linearGradient>
<linearGradient id="paint34_linear_102_13" x1="530.14" y1="244.29" x2="540.669" y2="244.29" gradientUnits="userSpaceOnUse">
<stop stop-color="#653271"/>
<stop offset="0.1129" stop-color="#5B2F65"/>
<stop offset="0.496" stop-color="#3D263F"/>
<stop offset="0.8053" stop-color="#2A2128"/>
<stop offset="1" stop-color="#231F20"/>
</linearGradient>
<radialGradient id="paint35_radial_102_13" cx="0" cy="0" r="1" gradientUnits="userSpaceOnUse" gradientTransform="translate(568.571 244.469) scale(44.5061 44.5061)">
<stop stop-color="#4E40AF" stop-opacity="0"/>
<stop offset="0.1096" stop-color="#5446B2" stop-opacity="0.0438"/>
<stop offset="0.2617" stop-color="#6558B9" stop-opacity="0.1047"/>
<stop offset="0.4387" stop-color="#8076C6" stop-opacity="0.1755"/>
<stop offset="0.6345" stop-color="#A69FD7" stop-opacity="0.2538"/>
<stop offset="0.8432" stop-color="#D6D3ED" stop-opacity="0.3373"/>
<stop offset="1" stop-color="white" stop-opacity="0.4"/>
</radialGradient>
<linearGradient id="paint36_linear_102_13" x1="561.66" y1="282.884" x2="609.077" y2="282.884" gradientUnits="userSpaceOnUse">
<stop stop-color="#FF57BD"/>
<stop offset="1" stop-color="#FE6A77"/>
</linearGradient>
<linearGradient id="paint37_linear_102_13" x1="601.336" y1="247.521" x2="613.066" y2="247.521" gradientUnits="userSpaceOnUse">
<stop stop-color="#05C5DA"/>
<stop offset="1" stop-color="#0090B2"/>
</linearGradient>
<linearGradient id="paint38_linear_102_13" x1="190.805" y1="327.453" x2="215.948" y2="327.453" gradientUnits="userSpaceOnUse">
<stop stop-color="#05C5DA"/>
<stop offset="1" stop-color="#5860C4"/>
</linearGradient>
<linearGradient id="paint39_linear_102_13" x1="533.316" y1="509.874" x2="604.359" y2="509.874" gradientUnits="userSpaceOnUse">
<stop stop-color="#05C5DA"/>
<stop offset="1" stop-color="#5860C4"/>
</linearGradient>
<linearGradient id="paint40_linear_102_13" x1="441.166" y1="459.775" x2="564.125" y2="459.775" gradientUnits="userSpaceOnUse">
<stop stop-color="#FF57BD"/>
<stop offset="1" stop-color="#FE6A77"/>
</linearGradient>
<linearGradient id="paint41_linear_102_13" x1="358.256" y1="278.674" x2="358.256" y2="335.388" gradientUnits="userSpaceOnUse">
<stop stop-color="#FE6A77"/>
<stop offset="1" stop-color="#C91C91"/>
</linearGradient>
<linearGradient id="paint42_linear_102_13" x1="403.495" y1="310.555" x2="423.645" y2="310.555" gradientUnits="userSpaceOnUse">
<stop stop-color="#05C5DA"/>
<stop offset="1" stop-color="#5860C4"/>
</linearGradient>
<linearGradient id="paint43_linear_102_13" x1="360.499" y1="295.059" x2="423.965" y2="295.059" gradientUnits="userSpaceOnUse">
<stop stop-color="#FF57BD"/>
<stop offset="1" stop-color="#FE6A77"/>
</linearGradient>
<linearGradient id="paint44_linear_102_13" x1="403.501" y1="305.727" x2="423.965" y2="305.727" gradientUnits="userSpaceOnUse">
<stop stop-color="#05C5DA"/>
<stop offset="1" stop-color="#0090B2"/>
</linearGradient>
<linearGradient id="paint45_linear_102_13" x1="321.944" y1="257.147" x2="383.242" y2="257.147" gradientUnits="userSpaceOnUse">
<stop stop-color="#00E2EC"/>
<stop offset="1" stop-color="#0090B2"/>
</linearGradient>
<linearGradient id="paint46_linear_102_13" x1="273.355" y1="431.338" x2="395.409" y2="328.922" gradientUnits="userSpaceOnUse">
<stop stop-color="#FE6A77"/>
<stop offset="1" stop-color="#FF57BD"/>
</linearGradient>
<linearGradient id="paint47_linear_102_13" x1="310.006" y1="377.042" x2="378.167" y2="319.848" gradientUnits="userSpaceOnUse">
<stop stop-color="#C5188E"/>
<stop offset="1" stop-color="#FF57BD"/>
</linearGradient>
<linearGradient id="paint48_linear_102_13" x1="364.881" y1="439.606" x2="560.134" y2="439.606" gradientUnits="userSpaceOnUse">
<stop stop-color="#C91C91"/>
<stop offset="1" stop-color="#FE6A77"/>
</linearGradient>
<linearGradient id="paint49_linear_102_13" x1="443.5" y1="395.35" x2="498.888" y2="395.35" gradientUnits="userSpaceOnUse">
<stop stop-color="#00E2EC"/>
<stop offset="1" stop-color="#0090B2"/>
</linearGradient>
<linearGradient id="paint50_linear_102_13" x1="552.047" y1="420.01" x2="622.203" y2="420.01" gradientUnits="userSpaceOnUse">
<stop stop-color="#00E2EC"/>
<stop offset="1" stop-color="#0090B2"/>
</linearGradient>
<linearGradient id="paint51_linear_102_13" x1="198.761" y1="405.011" x2="276.32" y2="405.011" gradientUnits="userSpaceOnUse">
<stop stop-color="#FE6A77"/>
<stop offset="1" stop-color="#C91C91"/>
</linearGradient>
<linearGradient id="paint52_linear_102_13" x1="198.828" y1="430.255" x2="220.246" y2="430.255" gradientUnits="userSpaceOnUse">
<stop stop-color="#00E2EC"/>
<stop offset="1" stop-color="#0090B2"/>
</linearGradient>
<linearGradient id="paint53_linear_102_13" x1="237.173" y1="512.772" x2="284.501" y2="512.772" gradientUnits="userSpaceOnUse">
<stop stop-color="#00E2EC"/>
<stop offset="1" stop-color="#0090B2"/>
</linearGradient>
<linearGradient id="paint54_linear_102_13" x1="256.239" y1="279.807" x2="261.833" y2="311.535" gradientUnits="userSpaceOnUse">
<stop stop-color="#C16846"/>
<stop offset="0.2653" stop-color="#D27565"/>
<stop offset="0.5308" stop-color="#DE7F7B"/>
<stop offset="0.7814" stop-color="#E58589"/>
<stop offset="1" stop-color="#E8878E"/>
</linearGradient>
<linearGradient id="paint55_linear_102_13" x1="223.77" y1="284.776" x2="261.693" y2="252.955" gradientUnits="userSpaceOnUse">
<stop stop-color="#E8878E"/>
<stop offset="1" stop-color="#F4BEA3"/>
</linearGradient>
<linearGradient id="paint56_linear_102_13" x1="249.482" y1="262.167" x2="261.045" y2="262.167" gradientUnits="userSpaceOnUse">
<stop stop-color="#FF57BD"/>
<stop offset="1" stop-color="#FE6A77"/>
</linearGradient>
<linearGradient id="paint57_linear_102_13" x1="210.463" y1="253.615" x2="257.06" y2="253.615" gradientUnits="userSpaceOnUse">
<stop stop-color="#994574"/>
<stop offset="1" stop-color="#43256F"/>
</linearGradient>
<radialGradient id="paint58_radial_102_13" cx="0" cy="0" r="1" gradientUnits="userSpaceOnUse" gradientTransform="translate(238.767 264.892) scale(47.0205 47.0205)">
<stop stop-color="#635AD5" stop-opacity="0"/>
<stop offset="0.1205" stop-color="#6960D7" stop-opacity="0.0482"/>
<stop offset="0.2878" stop-color="#7A72DB" stop-opacity="0.1151"/>
<stop offset="0.4824" stop-color="#9690E3" stop-opacity="0.193"/>
<stop offset="0.6977" stop-color="#BDB9ED" stop-opacity="0.2791"/>
<stop offset="0.9273" stop-color="#EEEDFA" stop-opacity="0.3709"/>
<stop offset="1" stop-color="white" stop-opacity="0.4"/>
</radialGradient>
<linearGradient id="paint59_linear_102_13" x1="191.881" y1="266.72" x2="267.764" y2="266.72" gradientUnits="userSpaceOnUse">
<stop stop-color="#00E2EC"/>
<stop offset="1" stop-color="#0090B2"/>
</linearGradient>
<linearGradient id="paint60_linear_102_13" x1="203.952" y1="296.631" x2="214.966" y2="287.389" gradientUnits="userSpaceOnUse">
<stop stop-color="#A281FF"/>
<stop offset="0.0945" stop-color="#B17AF5"/>
<stop offset="0.3504" stop-color="#D36BDD"/>
<stop offset="0.5934" stop-color="#EB60CB"/>
<stop offset="0.8163" stop-color="#FA59C1"/>
<stop offset="1" stop-color="#FF57BD"/>
</linearGradient>
<linearGradient id="paint61_linear_102_13" x1="222.908" y1="304.575" x2="299.871" y2="304.575" gradientUnits="userSpaceOnUse">
<stop stop-color="#00E2EC"/>
<stop offset="1" stop-color="#0090B2"/>
</linearGradient>
<linearGradient id="paint62_linear_102_13" x1="318.793" y1="235.1" x2="347.719" y2="235.1" gradientUnits="userSpaceOnUse">
<stop stop-color="#653271"/>
<stop offset="0.1129" stop-color="#5B2F65"/>
<stop offset="0.496" stop-color="#3D263F"/>
<stop offset="0.8053" stop-color="#2A2128"/>
<stop offset="1" stop-color="#231F20"/>
</linearGradient>
<linearGradient id="paint63_linear_102_13" x1="320.493" y1="221.575" x2="345.69" y2="246.772" gradientUnits="userSpaceOnUse">
<stop stop-color="#84DBF1"/>
<stop offset="1" stop-color="#FFE2A8"/>
</linearGradient>
<linearGradient id="paint64_linear_102_13" x1="303.179" y1="410.708" x2="368.507" y2="410.708" gradientUnits="userSpaceOnUse">
<stop stop-color="#A7BAFD"/>
<stop offset="1" stop-color="#A944F9"/>
</linearGradient>
<linearGradient id="paint65_linear_102_13" x1="468.5" y1="201.5" x2="521" y2="203" gradientUnits="userSpaceOnUse">
<stop stop-color="#A0C2F5"/>
<stop offset="1" stop-color="#A944F9"/>
</linearGradient>
<linearGradient id="paint66_linear_102_13" x1="430.88" y1="332.034" x2="483.592" y2="332.034" gradientUnits="userSpaceOnUse">
<stop stop-color="#A7AAFD"/>
<stop offset="1" stop-color="#A944F9"/>
</linearGradient>
<linearGradient id="paint67_linear_102_13" x1="113.739" y1="438.566" x2="163.955" y2="438.566" gradientUnits="userSpaceOnUse">
<stop stop-color="#A7BFFD"/>
<stop offset="1" stop-color="#8944F9"/>
</linearGradient>
<linearGradient id="paint68_linear_102_13" x1="97.0674" y1="551.43" x2="148.019" y2="551.43" gradientUnits="userSpaceOnUse">
<stop stop-color="#D7A7FD"/>
<stop offset="1" stop-color="#7E44F9"/>
</linearGradient>
</defs>
</svg>
